<svg width="1000" height="1000" xmlns="http://www.w3.org/2000/svg" version="1.1">


<!-- internal style sheet -->
<style type="text/css"><![CDATA[
 rect.background{fill:white}
 rect{fill:none; stroke:rgb(25,25,25); stroke-width:2}
 text{font-family:Helvetica; text-anchor:middle; fill:rgb(25,25,25)}
 line{stroke:rgb(25,25,25); stroke-width:4}
 path{fill:none; stroke:rgb(25,25,25); stroke-width:2}
 circle{fill:white; stroke:black; stroke-width:2}

 path.p0{fill:rgb(0,102,255); stroke:rgb(25,25,25); stroke-width:2}
 path.ps0{fill:rgb(0,77,191); stroke:rgb(20,20,20); stroke-width:2}
 rect.r0{fill:rgb(0,102,255); stroke:rgb(25,25,25); stroke-width:2}
 path.p1{fill:rgb(0,255,224); stroke:rgb(25,25,25); stroke-width:2}
 path.ps1{fill:rgb(0,191,168); stroke:rgb(20,20,20); stroke-width:2}
 rect.r1{fill:rgb(0,255,224); stroke:rgb(25,25,25); stroke-width:2}
 path.p2{fill:rgb(0,255,41); stroke:rgb(25,25,25); stroke-width:2}
 path.ps2{fill:rgb(0,191,31); stroke:rgb(20,20,20); stroke-width:2}
 rect.r2{fill:rgb(0,255,41); stroke:rgb(25,25,25); stroke-width:2}
 path.p3{fill:rgb(143,255,0); stroke:rgb(25,25,25); stroke-width:2}
 path.ps3{fill:rgb(107,191,0); stroke:rgb(20,20,20); stroke-width:2}
 rect.r3{fill:rgb(143,255,0); stroke:rgb(25,25,25); stroke-width:2}
 path.p4{fill:rgb(255,184,0); stroke:rgb(25,25,25); stroke-width:2}
 path.ps4{fill:rgb(191,138,0); stroke:rgb(20,20,20); stroke-width:2}
 rect.r4{fill:rgb(255,184,0); stroke:rgb(25,25,25); stroke-width:2}
 path.p5{fill:rgb(255,0,0); stroke:rgb(25,25,25); stroke-width:2}
 path.ps5{fill:rgb(191,0,0); stroke:rgb(20,20,20); stroke-width:2}
 rect.r5{fill:rgb(255,0,0); stroke:rgb(25,25,25); stroke-width:2}
]]></style>

 <rect class="background" width="1000" height="1000"/>
  <!-- cells -->
  <path class="p0" d="M 80 920 L 290 920 L 290 710 L 80 710 L 80 920"/>
  <line x1="80" y1="920" x2="80" y2="710"/>
  <line x1="80" y1="920" x2="290" y2="920"/>
  <path class="p0" d="M 290 920 L 500 920 L 500 710 L 290 710 L 290 920"/>
  <line x1="290" y1="920" x2="500" y2="920"/>
  <line x1="290" y1="710" x2="500" y2="710"/>
  <path class="p0" d="M 80 710 L 290 710 L 290 500 L 80 500 L 80 710"/>
  <line x1="80" y1="710" x2="80" y2="500"/>
  <line x1="290" y1="710" x2="290" y2="500"/>
  <path class="p1" d="M 710 920 L 815 920 L 815 815 L 710 815 L 710 920"/>
  <line x1="710" y1="920" x2="815" y2="920"/>
  <path class="p1" d="M 815 920 L 920 920 L 920 815 L 815 815 L 815 920"/>
  <line x1="920" y1="920" x2="920" y2="815"/>
  <line x1="815" y1="920" x2="920" y2="920"/>
  <path class="p1" d="M 710 815 L 815 815 L 815 710 L 710 710 L 710 815"/>
  <path class="p1" d="M 815 815 L 920 815 L 920 710 L 815 710 L 815 815"/>
  <line x1="920" y1="815" x2="920" y2="710"/>
  <path class="p1" d="M 80 290 L 185 290 L 185 185 L 80 185 L 80 290"/>
  <line x1="80" y1="290" x2="80" y2="185"/>
  <path class="p1" d="M 185 290 L 290 290 L 290 185 L 185 185 L 185 290"/>
  <path class="p1" d="M 80 185 L 185 185 L 185 80 L 80 80 L 80 185"/>
  <line x1="80" y1="185" x2="80" y2="80"/>
  <line x1="80" y1="80" x2="185" y2="80"/>
  <path class="p1" d="M 185 185 L 290 185 L 290 80 L 185 80 L 185 185"/>
  <line x1="185" y1="80" x2="290" y2="80"/>
  <path class="p1" d="M 500 920 L 605 920 L 605 815 L 500 815 L 500 920"/>
  <line x1="500" y1="920" x2="605" y2="920"/>
  <path class="p1" d="M 605 920 L 710 920 L 710 815 L 605 815 L 605 920"/>
  <line x1="605" y1="920" x2="710" y2="920"/>
  <path class="p1" d="M 500 815 L 605 815 L 605 710 L 500 710 L 500 815"/>
  <line x1="500" y1="710" x2="605" y2="710"/>
  <path class="p1" d="M 605 815 L 710 815 L 710 710 L 605 710 L 605 815"/>
  <line x1="605" y1="710" x2="710" y2="710"/>
  <path class="p1" d="M 80 500 L 185 500 L 185 395 L 80 395 L 80 500"/>
  <line x1="80" y1="500" x2="80" y2="395"/>
  <path class="p1" d="M 185 500 L 290 500 L 290 395 L 185 395 L 185 500"/>
  <line x1="290" y1="500" x2="290" y2="395"/>
  <path class="p1" d="M 80 395 L 185 395 L 185 290 L 80 290 L 80 395"/>
  <line x1="80" y1="395" x2="80" y2="290"/>
  <path class="p1" d="M 185 395 L 290 395 L 290 290 L 185 290 L 185 395"/>
  <line x1="290" y1="395" x2="290" y2="290"/>
  <path class="p2" d="M 868 133 L 920 133 L 920 80 L 868 80 L 868 133"/>
  <line x1="920" y1="133" x2="920" y2="80"/>
  <line x1="868" y1="80" x2="920" y2="80"/>
  <path class="p2" d="M 710 710 L 763 710 L 763 658 L 710 658 L 710 710"/>
  <line x1="710" y1="710" x2="710" y2="658"/>
  <path class="p2" d="M 763 710 L 815 710 L 815 658 L 763 658 L 763 710"/>
  <path class="p2" d="M 710 658 L 763 658 L 763 605 L 710 605 L 710 658"/>
  <line x1="710" y1="658" x2="710" y2="605"/>
  <path class="p2" d="M 763 658 L 815 658 L 815 605 L 763 605 L 763 658"/>
  <path class="p2" d="M 815 710 L 868 710 L 868 658 L 815 658 L 815 710"/>
  <path class="p2" d="M 868 710 L 920 710 L 920 658 L 868 658 L 868 710"/>
  <line x1="920" y1="710" x2="920" y2="658"/>
  <path class="p2" d="M 815 658 L 868 658 L 868 605 L 815 605 L 815 658"/>
  <path class="p2" d="M 868 658 L 920 658 L 920 605 L 868 605 L 868 658"/>
  <line x1="920" y1="658" x2="920" y2="605"/>
  <path class="p2" d="M 290 290 L 343 290 L 343 238 L 290 238 L 290 290"/>
  <line x1="290" y1="290" x2="343" y2="290"/>
  <path class="p2" d="M 343 290 L 395 290 L 395 238 L 343 238 L 343 290"/>
  <line x1="343" y1="290" x2="395" y2="290"/>
  <path class="p2" d="M 290 238 L 343 238 L 343 185 L 290 185 L 290 238"/>
  <path class="p2" d="M 343 238 L 395 238 L 395 185 L 343 185 L 343 238"/>
  <path class="p2" d="M 290 185 L 343 185 L 343 133 L 290 133 L 290 185"/>
  <path class="p2" d="M 343 185 L 395 185 L 395 133 L 343 133 L 343 185"/>
  <path class="p2" d="M 290 133 L 343 133 L 343 80 L 290 80 L 290 133"/>
  <line x1="290" y1="80" x2="343" y2="80"/>
  <path class="p2" d="M 343 133 L 395 133 L 395 80 L 343 80 L 343 133"/>
  <line x1="343" y1="80" x2="395" y2="80"/>
  <path class="p3" d="M 841 159 L 868 159 L 868 133 L 841 133 L 841 159"/>
  <path class="p3" d="M 710 395 L 736 395 L 736 369 L 710 369 L 710 395"/>
  <line x1="710" y1="395" x2="710" y2="369"/>
  <path class="p3" d="M 736 395 L 763 395 L 763 369 L 736 369 L 736 395"/>
  <path class="p3" d="M 763 395 L 789 395 L 789 369 L 763 369 L 763 395"/>
  <path class="p3" d="M 868 395 L 894 395 L 894 369 L 868 369 L 868 395"/>
  <path class="p3" d="M 894 395 L 920 395 L 920 369 L 894 369 L 894 395"/>
  <line x1="920" y1="395" x2="920" y2="369"/>
  <path class="p3" d="M 868 369 L 894 369 L 894 343 L 868 343 L 868 369"/>
  <path class="p3" d="M 894 369 L 920 369 L 920 343 L 894 343 L 894 369"/>
  <line x1="920" y1="369" x2="920" y2="343"/>
  <path class="p3" d="M 868 343 L 894 343 L 894 316 L 868 316 L 868 343"/>
  <path class="p3" d="M 894 343 L 920 343 L 920 316 L 894 316 L 894 343"/>
  <line x1="920" y1="343" x2="920" y2="316"/>
  <path class="p3" d="M 868 316 L 894 316 L 894 290 L 868 290 L 868 316"/>
  <path class="p3" d="M 894 316 L 920 316 L 920 290 L 894 290 L 894 316"/>
  <line x1="920" y1="316" x2="920" y2="290"/>
  <path class="p3" d="M 605 290 L 631 290 L 631 264 L 605 264 L 605 290"/>
  <line x1="605" y1="290" x2="631" y2="290"/>
  <path class="p3" d="M 605 264 L 631 264 L 631 238 L 605 238 L 605 264"/>
  <path class="p3" d="M 605 238 L 631 238 L 631 211 L 605 211 L 605 238"/>
  <path class="p3" d="M 605 133 L 631 133 L 631 106 L 605 106 L 605 133"/>
  <path class="p3" d="M 631 133 L 658 133 L 658 106 L 631 106 L 631 133"/>
  <path class="p3" d="M 605 106 L 631 106 L 631 80 L 605 80 L 605 106"/>
  <line x1="605" y1="80" x2="631" y2="80"/>
  <path class="p3" d="M 631 106 L 658 106 L 658 80 L 631 80 L 631 106"/>
  <line x1="631" y1="80" x2="658" y2="80"/>
  <path class="p3" d="M 658 133 L 684 133 L 684 106 L 658 106 L 658 133"/>
  <path class="p3" d="M 684 133 L 710 133 L 710 106 L 684 106 L 684 133"/>
  <path class="p3" d="M 658 106 L 684 106 L 684 80 L 658 80 L 658 106"/>
  <line x1="658" y1="80" x2="684" y2="80"/>
  <path class="p3" d="M 684 106 L 710 106 L 710 80 L 684 80 L 684 106"/>
  <line x1="684" y1="80" x2="710" y2="80"/>
  <path class="p3" d="M 868 290 L 894 290 L 894 264 L 868 264 L 868 290"/>
  <path class="p3" d="M 894 290 L 920 290 L 920 264 L 894 264 L 894 290"/>
  <line x1="920" y1="290" x2="920" y2="264"/>
  <path class="p3" d="M 868 264 L 894 264 L 894 238 L 868 238 L 868 264"/>
  <path class="p3" d="M 894 264 L 920 264 L 920 238 L 894 238 L 894 264"/>
  <line x1="920" y1="264" x2="920" y2="238"/>
  <path class="p3" d="M 710 133 L 736 133 L 736 106 L 710 106 L 710 133"/>
  <path class="p3" d="M 736 133 L 763 133 L 763 106 L 736 106 L 736 133"/>
  <path class="p3" d="M 710 106 L 736 106 L 736 80 L 710 80 L 710 106"/>
  <line x1="710" y1="80" x2="736" y2="80"/>
  <path class="p3" d="M 736 106 L 763 106 L 763 80 L 736 80 L 736 106"/>
  <line x1="736" y1="80" x2="763" y2="80"/>
  <path class="p3" d="M 868 159 L 894 159 L 894 133 L 868 133 L 868 159"/>
  <path class="p3" d="M 894 159 L 920 159 L 920 133 L 894 133 L 894 159"/>
  <line x1="920" y1="159" x2="920" y2="133"/>
  <path class="p3" d="M 841 133 L 868 133 L 868 106 L 841 106 L 841 133"/>
  <path class="p3" d="M 841 106 L 868 106 L 868 80 L 841 80 L 841 106"/>
  <line x1="841" y1="80" x2="868" y2="80"/>
  <path class="p3" d="M 710 500 L 736 500 L 736 474 L 710 474 L 710 500"/>
  <line x1="710" y1="500" x2="710" y2="474"/>
  <path class="p3" d="M 736 500 L 763 500 L 763 474 L 736 474 L 736 500"/>
  <path class="p3" d="M 710 474 L 736 474 L 736 448 L 710 448 L 710 474"/>
  <line x1="710" y1="474" x2="710" y2="448"/>
  <path class="p3" d="M 736 474 L 763 474 L 763 448 L 736 448 L 736 474"/>
  <path class="p3" d="M 710 448 L 736 448 L 736 421 L 710 421 L 710 448"/>
  <line x1="710" y1="448" x2="710" y2="421"/>
  <path class="p3" d="M 736 448 L 763 448 L 763 421 L 736 421 L 736 448"/>
  <path class="p3" d="M 710 421 L 736 421 L 736 395 L 710 395 L 710 421"/>
  <line x1="710" y1="421" x2="710" y2="395"/>
  <path class="p3" d="M 736 421 L 763 421 L 763 395 L 736 395 L 736 421"/>
  <path class="p3" d="M 763 448 L 789 448 L 789 421 L 763 421 L 763 448"/>
  <path class="p3" d="M 763 421 L 789 421 L 789 395 L 763 395 L 763 421"/>
  <path class="p3" d="M 553 290 L 579 290 L 579 264 L 553 264 L 553 290"/>
  <line x1="553" y1="290" x2="579" y2="290"/>
  <path class="p3" d="M 579 290 L 605 290 L 605 264 L 579 264 L 579 290"/>
  <line x1="579" y1="290" x2="605" y2="290"/>
  <path class="p3" d="M 553 264 L 579 264 L 579 238 L 553 238 L 553 264"/>
  <path class="p3" d="M 579 264 L 605 264 L 605 238 L 579 238 L 579 264"/>
  <path class="p3" d="M 553 238 L 579 238 L 579 211 L 553 211 L 553 238"/>
  <path class="p3" d="M 579 238 L 605 238 L 605 211 L 579 211 L 579 238"/>
  <path class="p3" d="M 763 500 L 789 500 L 789 474 L 763 474 L 763 500"/>
  <path class="p3" d="M 789 500 L 815 500 L 815 474 L 789 474 L 789 500"/>
  <path class="p3" d="M 763 474 L 789 474 L 789 448 L 763 448 L 763 474"/>
  <path class="p3" d="M 789 474 L 815 474 L 815 448 L 789 448 L 789 474"/>
  <path class="p3" d="M 815 500 L 841 500 L 841 474 L 815 474 L 815 500"/>
  <path class="p3" d="M 841 500 L 868 500 L 868 474 L 841 474 L 841 500"/>
  <path class="p3" d="M 815 474 L 841 474 L 841 448 L 815 448 L 815 474"/>
  <path class="p3" d="M 841 474 L 868 474 L 868 448 L 841 448 L 841 474"/>
  <path class="p3" d="M 868 500 L 894 500 L 894 474 L 868 474 L 868 500"/>
  <path class="p3" d="M 894 500 L 920 500 L 920 474 L 894 474 L 894 500"/>
  <line x1="920" y1="500" x2="920" y2="474"/>
  <path class="p3" d="M 868 474 L 894 474 L 894 448 L 868 448 L 868 474"/>
  <path class="p3" d="M 894 474 L 920 474 L 920 448 L 894 448 L 894 474"/>
  <line x1="920" y1="474" x2="920" y2="448"/>
  <path class="p3" d="M 815 448 L 841 448 L 841 421 L 815 421 L 815 448"/>
  <path class="p3" d="M 841 448 L 868 448 L 868 421 L 841 421 L 841 448"/>
  <path class="p3" d="M 815 421 L 841 421 L 841 395 L 815 395 L 815 421"/>
  <path class="p3" d="M 841 421 L 868 421 L 868 395 L 841 395 L 841 421"/>
  <path class="p3" d="M 868 448 L 894 448 L 894 421 L 868 421 L 868 448"/>
  <path class="p3" d="M 894 448 L 920 448 L 920 421 L 894 421 L 894 448"/>
  <line x1="920" y1="448" x2="920" y2="421"/>
  <path class="p3" d="M 868 421 L 894 421 L 894 395 L 868 395 L 868 421"/>
  <path class="p3" d="M 894 421 L 920 421 L 920 395 L 894 395 L 894 421"/>
  <line x1="920" y1="421" x2="920" y2="395"/>
  <path class="p3" d="M 500 290 L 526 290 L 526 264 L 500 264 L 500 290"/>
  <line x1="500" y1="290" x2="526" y2="290"/>
  <path class="p3" d="M 526 290 L 553 290 L 553 264 L 526 264 L 526 290"/>
  <line x1="526" y1="290" x2="553" y2="290"/>
  <path class="p3" d="M 500 264 L 526 264 L 526 238 L 500 238 L 500 264"/>
  <path class="p3" d="M 526 264 L 553 264 L 553 238 L 526 238 L 526 264"/>
  <path class="p3" d="M 500 238 L 526 238 L 526 211 L 500 211 L 500 238"/>
  <path class="p3" d="M 526 238 L 553 238 L 553 211 L 526 211 L 526 238"/>
  <path class="p3" d="M 500 211 L 526 211 L 526 185 L 500 185 L 500 211"/>
  <path class="p3" d="M 526 211 L 553 211 L 553 185 L 526 185 L 526 211"/>
  <path class="p3" d="M 500 185 L 526 185 L 526 159 L 500 159 L 500 185"/>
  <path class="p3" d="M 526 185 L 553 185 L 553 159 L 526 159 L 526 185"/>
  <path class="p3" d="M 500 159 L 526 159 L 526 133 L 500 133 L 500 159"/>
  <path class="p3" d="M 526 159 L 553 159 L 553 133 L 526 133 L 526 159"/>
  <path class="p3" d="M 553 185 L 579 185 L 579 159 L 553 159 L 553 185"/>
  <path class="p3" d="M 579 185 L 605 185 L 605 159 L 579 159 L 579 185"/>
  <path class="p3" d="M 553 159 L 579 159 L 579 133 L 553 133 L 553 159"/>
  <path class="p3" d="M 579 159 L 605 159 L 605 133 L 579 133 L 579 159"/>
  <path class="p3" d="M 500 133 L 526 133 L 526 106 L 500 106 L 500 133"/>
  <path class="p3" d="M 526 133 L 553 133 L 553 106 L 526 106 L 526 133"/>
  <path class="p3" d="M 500 106 L 526 106 L 526 80 L 500 80 L 500 106"/>
  <line x1="500" y1="80" x2="526" y2="80"/>
  <path class="p3" d="M 526 106 L 553 106 L 553 80 L 526 80 L 526 106"/>
  <line x1="526" y1="80" x2="553" y2="80"/>
  <path class="p3" d="M 553 133 L 579 133 L 579 106 L 553 106 L 553 133"/>
  <path class="p3" d="M 579 133 L 605 133 L 605 106 L 579 106 L 579 133"/>
  <path class="p3" d="M 553 106 L 579 106 L 579 80 L 553 80 L 553 106"/>
  <line x1="553" y1="80" x2="579" y2="80"/>
  <path class="p3" d="M 579 106 L 605 106 L 605 80 L 579 80 L 579 106"/>
  <line x1="579" y1="80" x2="605" y2="80"/>
  <path class="p3" d="M 710 605 L 736 605 L 736 579 L 710 579 L 710 605"/>
  <line x1="710" y1="605" x2="710" y2="579"/>
  <path class="p3" d="M 736 605 L 763 605 L 763 579 L 736 579 L 736 605"/>
  <path class="p3" d="M 710 579 L 736 579 L 736 553 L 710 553 L 710 579"/>
  <line x1="710" y1="579" x2="710" y2="553"/>
  <path class="p3" d="M 736 579 L 763 579 L 763 553 L 736 553 L 736 579"/>
  <path class="p3" d="M 763 605 L 789 605 L 789 579 L 763 579 L 763 605"/>
  <path class="p3" d="M 789 605 L 815 605 L 815 579 L 789 579 L 789 605"/>
  <path class="p3" d="M 763 579 L 789 579 L 789 553 L 763 553 L 763 579"/>
  <path class="p3" d="M 789 579 L 815 579 L 815 553 L 789 553 L 789 579"/>
  <path class="p3" d="M 710 553 L 736 553 L 736 526 L 710 526 L 710 553"/>
  <line x1="710" y1="553" x2="710" y2="526"/>
  <path class="p3" d="M 736 553 L 763 553 L 763 526 L 736 526 L 736 553"/>
  <path class="p3" d="M 710 526 L 736 526 L 736 500 L 710 500 L 710 526"/>
  <line x1="710" y1="526" x2="710" y2="500"/>
  <path class="p3" d="M 736 526 L 763 526 L 763 500 L 736 500 L 736 526"/>
  <path class="p3" d="M 763 553 L 789 553 L 789 526 L 763 526 L 763 553"/>
  <path class="p3" d="M 789 553 L 815 553 L 815 526 L 789 526 L 789 553"/>
  <path class="p3" d="M 763 526 L 789 526 L 789 500 L 763 500 L 763 526"/>
  <path class="p3" d="M 789 526 L 815 526 L 815 500 L 789 500 L 789 526"/>
  <path class="p3" d="M 815 605 L 841 605 L 841 579 L 815 579 L 815 605"/>
  <path class="p3" d="M 841 605 L 868 605 L 868 579 L 841 579 L 841 605"/>
  <path class="p3" d="M 815 579 L 841 579 L 841 553 L 815 553 L 815 579"/>
  <path class="p3" d="M 841 579 L 868 579 L 868 553 L 841 553 L 841 579"/>
  <path class="p3" d="M 868 605 L 894 605 L 894 579 L 868 579 L 868 605"/>
  <path class="p3" d="M 894 605 L 920 605 L 920 579 L 894 579 L 894 605"/>
  <line x1="920" y1="605" x2="920" y2="579"/>
  <path class="p3" d="M 868 579 L 894 579 L 894 553 L 868 553 L 868 579"/>
  <path class="p3" d="M 894 579 L 920 579 L 920 553 L 894 553 L 894 579"/>
  <line x1="920" y1="579" x2="920" y2="553"/>
  <path class="p3" d="M 815 553 L 841 553 L 841 526 L 815 526 L 815 553"/>
  <path class="p3" d="M 841 553 L 868 553 L 868 526 L 841 526 L 841 553"/>
  <path class="p3" d="M 815 526 L 841 526 L 841 500 L 815 500 L 815 526"/>
  <path class="p3" d="M 841 526 L 868 526 L 868 500 L 841 500 L 841 526"/>
  <path class="p3" d="M 868 553 L 894 553 L 894 526 L 868 526 L 868 553"/>
  <path class="p3" d="M 894 553 L 920 553 L 920 526 L 894 526 L 894 553"/>
  <line x1="920" y1="553" x2="920" y2="526"/>
  <path class="p3" d="M 868 526 L 894 526 L 894 500 L 868 500 L 868 526"/>
  <path class="p3" d="M 894 526 L 920 526 L 920 500 L 894 500 L 894 526"/>
  <line x1="920" y1="526" x2="920" y2="500"/>
  <path class="p3" d="M 395 290 L 421 290 L 421 264 L 395 264 L 395 290"/>
  <line x1="395" y1="290" x2="421" y2="290"/>
  <path class="p3" d="M 421 290 L 448 290 L 448 264 L 421 264 L 421 290"/>
  <line x1="421" y1="290" x2="448" y2="290"/>
  <path class="p3" d="M 395 264 L 421 264 L 421 238 L 395 238 L 395 264"/>
  <path class="p3" d="M 421 264 L 448 264 L 448 238 L 421 238 L 421 264"/>
  <path class="p3" d="M 448 290 L 474 290 L 474 264 L 448 264 L 448 290"/>
  <line x1="448" y1="290" x2="474" y2="290"/>
  <path class="p3" d="M 474 290 L 500 290 L 500 264 L 474 264 L 474 290"/>
  <line x1="474" y1="290" x2="500" y2="290"/>
  <path class="p3" d="M 448 264 L 474 264 L 474 238 L 448 238 L 448 264"/>
  <path class="p3" d="M 474 264 L 500 264 L 500 238 L 474 238 L 474 264"/>
  <path class="p3" d="M 395 238 L 421 238 L 421 211 L 395 211 L 395 238"/>
  <path class="p3" d="M 421 238 L 448 238 L 448 211 L 421 211 L 421 238"/>
  <path class="p3" d="M 395 211 L 421 211 L 421 185 L 395 185 L 395 211"/>
  <path class="p3" d="M 421 211 L 448 211 L 448 185 L 421 185 L 421 211"/>
  <path class="p3" d="M 448 238 L 474 238 L 474 211 L 448 211 L 448 238"/>
  <path class="p3" d="M 474 238 L 500 238 L 500 211 L 474 211 L 474 238"/>
  <path class="p3" d="M 448 211 L 474 211 L 474 185 L 448 185 L 448 211"/>
  <path class="p3" d="M 474 211 L 500 211 L 500 185 L 474 185 L 474 211"/>
  <path class="p3" d="M 395 185 L 421 185 L 421 159 L 395 159 L 395 185"/>
  <path class="p3" d="M 421 185 L 448 185 L 448 159 L 421 159 L 421 185"/>
  <path class="p3" d="M 395 159 L 421 159 L 421 133 L 395 133 L 395 159"/>
  <path class="p3" d="M 421 159 L 448 159 L 448 133 L 421 133 L 421 159"/>
  <path class="p3" d="M 448 185 L 474 185 L 474 159 L 448 159 L 448 185"/>
  <path class="p3" d="M 474 185 L 500 185 L 500 159 L 474 159 L 474 185"/>
  <path class="p3" d="M 448 159 L 474 159 L 474 133 L 448 133 L 448 159"/>
  <path class="p3" d="M 474 159 L 500 159 L 500 133 L 474 133 L 474 159"/>
  <path class="p3" d="M 395 133 L 421 133 L 421 106 L 395 106 L 395 133"/>
  <path class="p3" d="M 421 133 L 448 133 L 448 106 L 421 106 L 421 133"/>
  <path class="p3" d="M 395 106 L 421 106 L 421 80 L 395 80 L 395 106"/>
  <line x1="395" y1="80" x2="421" y2="80"/>
  <path class="p3" d="M 421 106 L 448 106 L 448 80 L 421 80 L 421 106"/>
  <line x1="421" y1="80" x2="448" y2="80"/>
  <path class="p3" d="M 448 133 L 474 133 L 474 106 L 448 106 L 448 133"/>
  <path class="p3" d="M 474 133 L 500 133 L 500 106 L 474 106 L 474 133"/>
  <path class="p3" d="M 448 106 L 474 106 L 474 80 L 448 80 L 448 106"/>
  <line x1="448" y1="80" x2="474" y2="80"/>
  <path class="p3" d="M 474 106 L 500 106 L 500 80 L 474 80 L 474 106"/>
  <line x1="474" y1="80" x2="500" y2="80"/>
  <path class="p4" d="M 789 343 L 802 343 L 802 329 L 789 329 L 789 343"/>
  <path class="p4" d="M 802 343 L 815 343 L 815 329 L 802 329 L 802 343"/>
  <path class="p4" d="M 789 329 L 802 329 L 802 316 L 789 316 L 789 329"/>
  <path class="p4" d="M 802 329 L 815 329 L 815 316 L 802 316 L 802 329"/>
  <path class="p4" d="M 658 211 L 671 211 L 671 198 L 658 198 L 658 211"/>
  <path class="p4" d="M 671 211 L 684 211 L 684 198 L 671 198 L 671 211"/>
  <path class="p4" d="M 658 198 L 671 198 L 671 185 L 658 185 L 658 198"/>
  <path class="p4" d="M 671 198 L 684 198 L 684 185 L 671 185 L 671 198"/>
  <path class="p4" d="M 723 290 L 736 290 L 736 277 L 723 277 L 723 290"/>
  <path class="p4" d="M 710 277 L 723 277 L 723 264 L 710 264 L 710 277"/>
  <path class="p4" d="M 723 277 L 736 277 L 736 264 L 723 264 L 723 277"/>
  <path class="p4" d="M 789 290 L 802 290 L 802 277 L 789 277 L 789 290"/>
  <path class="p4" d="M 802 290 L 815 290 L 815 277 L 802 277 L 802 290"/>
  <path class="p4" d="M 789 277 L 802 277 L 802 264 L 789 264 L 789 277"/>
  <path class="p4" d="M 802 277 L 815 277 L 815 264 L 802 264 L 802 277"/>
  <path class="p4" d="M 710 211 L 723 211 L 723 198 L 710 198 L 710 211"/>
  <path class="p4" d="M 723 211 L 736 211 L 736 198 L 723 198 L 723 211"/>
  <path class="p4" d="M 710 198 L 723 198 L 723 185 L 710 185 L 710 198"/>
  <path class="p4" d="M 723 198 L 736 198 L 736 185 L 723 185 L 723 198"/>
  <path class="p4" d="M 789 211 L 802 211 L 802 198 L 789 198 L 789 211"/>
  <path class="p4" d="M 802 211 L 815 211 L 815 198 L 802 198 L 802 211"/>
  <path class="p4" d="M 789 198 L 802 198 L 802 185 L 789 185 L 789 198"/>
  <path class="p4" d="M 828 238 L 841 238 L 841 224 L 828 224 L 828 238"/>
  <path class="p4" d="M 815 224 L 828 224 L 828 211 L 815 211 L 815 224"/>
  <path class="p4" d="M 828 224 L 841 224 L 841 211 L 828 211 L 828 224"/>
  <path class="p4" d="M 815 211 L 828 211 L 828 198 L 815 198 L 815 211"/>
  <path class="p4" d="M 828 211 L 841 211 L 841 198 L 828 198 L 828 211"/>
  <path class="p4" d="M 841 211 L 854 211 L 854 198 L 841 198 L 841 211"/>
  <path class="p4" d="M 854 211 L 868 211 L 868 198 L 854 198 L 854 211"/>
  <path class="p4" d="M 841 198 L 854 198 L 854 185 L 841 185 L 841 198"/>
  <path class="p4" d="M 854 198 L 868 198 L 868 185 L 854 185 L 854 198"/>
  <path class="p4" d="M 776 185 L 789 185 L 789 172 L 776 172 L 776 185"/>
  <path class="p4" d="M 763 172 L 776 172 L 776 159 L 763 159 L 763 172"/>
  <path class="p4" d="M 776 172 L 789 172 L 789 159 L 776 159 L 776 172"/>
  <path class="p4" d="M 789 185 L 802 185 L 802 172 L 789 172 L 789 185"/>
  <path class="p4" d="M 789 172 L 802 172 L 802 159 L 789 159 L 789 172"/>
  <path class="p4" d="M 789 159 L 802 159 L 802 146 L 789 146 L 789 159"/>
  <path class="p4" d="M 802 159 L 815 159 L 815 146 L 802 146 L 802 159"/>
  <path class="p4" d="M 789 146 L 802 146 L 802 133 L 789 133 L 789 146"/>
  <path class="p4" d="M 802 146 L 815 146 L 815 133 L 802 133 L 802 146"/>
  <path class="p4" d="M 828 185 L 841 185 L 841 172 L 828 172 L 828 185"/>
  <path class="p4" d="M 815 172 L 828 172 L 828 159 L 815 159 L 815 172"/>
  <path class="p4" d="M 828 172 L 841 172 L 841 159 L 828 159 L 828 172"/>
  <path class="p4" d="M 841 185 L 854 185 L 854 172 L 841 172 L 841 185"/>
  <path class="p4" d="M 854 185 L 868 185 L 868 172 L 854 172 L 854 185"/>
  <path class="p4" d="M 841 172 L 854 172 L 854 159 L 841 159 L 841 172"/>
  <path class="p4" d="M 854 172 L 868 172 L 868 159 L 854 159 L 854 172"/>
  <path class="p4" d="M 815 159 L 828 159 L 828 146 L 815 146 L 815 159"/>
  <path class="p4" d="M 828 159 L 841 159 L 841 146 L 828 146 L 828 159"/>
  <path class="p4" d="M 815 146 L 828 146 L 828 133 L 815 133 L 815 146"/>
  <path class="p4" d="M 828 146 L 841 146 L 841 133 L 828 133 L 828 146"/>
  <path class="p4" d="M 710 343 L 723 343 L 723 329 L 710 329 L 710 343"/>
  <line x1="710" y1="343" x2="710" y2="329"/>
  <path class="p4" d="M 723 343 L 736 343 L 736 329 L 723 329 L 723 343"/>
  <path class="p4" d="M 710 329 L 723 329 L 723 316 L 710 316 L 710 329"/>
  <line x1="710" y1="329" x2="710" y2="316"/>
  <path class="p4" d="M 723 329 L 736 329 L 736 316 L 723 316 L 723 329"/>
  <path class="p4" d="M 736 343 L 749 343 L 749 329 L 736 329 L 736 343"/>
  <path class="p4" d="M 749 343 L 763 343 L 763 329 L 749 329 L 749 343"/>
  <path class="p4" d="M 736 329 L 749 329 L 749 316 L 736 316 L 736 329"/>
  <path class="p4" d="M 749 329 L 763 329 L 763 316 L 749 316 L 749 329"/>
  <path class="p4" d="M 736 316 L 749 316 L 749 303 L 736 303 L 736 316"/>
  <path class="p4" d="M 749 316 L 763 316 L 763 303 L 749 303 L 749 316"/>
  <path class="p4" d="M 736 303 L 749 303 L 749 290 L 736 290 L 736 303"/>
  <path class="p4" d="M 749 303 L 763 303 L 763 290 L 749 290 L 749 303"/>
  <path class="p4" d="M 763 343 L 776 343 L 776 329 L 763 329 L 763 343"/>
  <path class="p4" d="M 776 343 L 789 343 L 789 329 L 776 329 L 776 343"/>
  <path class="p4" d="M 763 329 L 776 329 L 776 316 L 763 316 L 763 329"/>
  <path class="p4" d="M 776 329 L 789 329 L 789 316 L 776 316 L 776 329"/>
  <path class="p4" d="M 763 316 L 776 316 L 776 303 L 763 303 L 763 316"/>
  <path class="p4" d="M 776 316 L 789 316 L 789 303 L 776 303 L 776 316"/>
  <path class="p4" d="M 763 303 L 776 303 L 776 290 L 763 290 L 763 303"/>
  <path class="p4" d="M 776 303 L 789 303 L 789 290 L 776 290 L 776 303"/>
  <path class="p4" d="M 789 316 L 802 316 L 802 303 L 789 303 L 789 316"/>
  <path class="p4" d="M 802 316 L 815 316 L 815 303 L 802 303 L 802 316"/>
  <path class="p4" d="M 789 303 L 802 303 L 802 290 L 789 290 L 789 303"/>
  <path class="p4" d="M 802 303 L 815 303 L 815 290 L 802 290 L 802 303"/>
  <path class="p4" d="M 658 290 L 671 290 L 671 277 L 658 277 L 658 290"/>
  <line x1="658" y1="290" x2="671" y2="290"/>
  <path class="p4" d="M 671 290 L 684 290 L 684 277 L 671 277 L 671 290"/>
  <line x1="671" y1="290" x2="684" y2="290"/>
  <path class="p4" d="M 658 277 L 671 277 L 671 264 L 658 264 L 658 277"/>
  <path class="p4" d="M 671 277 L 684 277 L 684 264 L 671 264 L 671 277"/>
  <path class="p4" d="M 658 264 L 671 264 L 671 251 L 658 251 L 658 264"/>
  <path class="p4" d="M 671 264 L 684 264 L 684 251 L 671 251 L 671 264"/>
  <path class="p4" d="M 658 251 L 671 251 L 671 238 L 658 238 L 658 251"/>
  <path class="p4" d="M 671 251 L 684 251 L 684 238 L 671 238 L 671 251"/>
  <path class="p4" d="M 684 264 L 697 264 L 697 251 L 684 251 L 684 264"/>
  <path class="p4" d="M 697 264 L 710 264 L 710 251 L 697 251 L 697 264"/>
  <path class="p4" d="M 684 251 L 697 251 L 697 238 L 684 238 L 684 251"/>
  <path class="p4" d="M 697 251 L 710 251 L 710 238 L 697 238 L 697 251"/>
  <path class="p4" d="M 658 238 L 671 238 L 671 224 L 658 224 L 658 238"/>
  <path class="p4" d="M 671 238 L 684 238 L 684 224 L 671 224 L 671 238"/>
  <path class="p4" d="M 658 224 L 671 224 L 671 211 L 658 211 L 658 224"/>
  <path class="p4" d="M 671 224 L 684 224 L 684 211 L 671 211 L 671 224"/>
  <path class="p4" d="M 684 238 L 697 238 L 697 224 L 684 224 L 684 238"/>
  <path class="p4" d="M 697 238 L 710 238 L 710 224 L 697 224 L 697 238"/>
  <path class="p4" d="M 684 224 L 697 224 L 697 211 L 684 211 L 684 224"/>
  <path class="p4" d="M 697 224 L 710 224 L 710 211 L 697 211 L 697 224"/>
  <path class="p4" d="M 684 211 L 697 211 L 697 198 L 684 198 L 684 211"/>
  <path class="p4" d="M 697 211 L 710 211 L 710 198 L 697 198 L 697 211"/>
  <path class="p4" d="M 684 198 L 697 198 L 697 185 L 684 185 L 684 198"/>
  <path class="p4" d="M 697 198 L 710 198 L 710 185 L 697 185 L 697 198"/>
  <path class="p4" d="M 736 290 L 749 290 L 749 277 L 736 277 L 736 290"/>
  <path class="p4" d="M 749 290 L 763 290 L 763 277 L 749 277 L 749 290"/>
  <path class="p4" d="M 736 277 L 749 277 L 749 264 L 736 264 L 736 277"/>
  <path class="p4" d="M 749 277 L 763 277 L 763 264 L 749 264 L 749 277"/>
  <path class="p4" d="M 710 264 L 723 264 L 723 251 L 710 251 L 710 264"/>
  <path class="p4" d="M 723 264 L 736 264 L 736 251 L 723 251 L 723 264"/>
  <path class="p4" d="M 710 251 L 723 251 L 723 238 L 710 238 L 710 251"/>
  <path class="p4" d="M 723 251 L 736 251 L 736 238 L 723 238 L 723 251"/>
  <path class="p4" d="M 736 264 L 749 264 L 749 251 L 736 251 L 736 264"/>
  <path class="p4" d="M 749 264 L 763 264 L 763 251 L 749 251 L 749 264"/>
  <path class="p4" d="M 736 251 L 749 251 L 749 238 L 736 238 L 736 251"/>
  <path class="p4" d="M 749 251 L 763 251 L 763 238 L 749 238 L 749 251"/>
  <path class="p4" d="M 763 290 L 776 290 L 776 277 L 763 277 L 763 290"/>
  <path class="p4" d="M 776 290 L 789 290 L 789 277 L 776 277 L 776 290"/>
  <path class="p4" d="M 763 277 L 776 277 L 776 264 L 763 264 L 763 277"/>
  <path class="p4" d="M 776 277 L 789 277 L 789 264 L 776 264 L 776 277"/>
  <path class="p4" d="M 763 264 L 776 264 L 776 251 L 763 251 L 763 264"/>
  <path class="p4" d="M 776 264 L 789 264 L 789 251 L 776 251 L 776 264"/>
  <path class="p4" d="M 763 251 L 776 251 L 776 238 L 763 238 L 763 251"/>
  <path class="p4" d="M 776 251 L 789 251 L 789 238 L 776 238 L 776 251"/>
  <path class="p4" d="M 789 264 L 802 264 L 802 251 L 789 251 L 789 264"/>
  <path class="p4" d="M 802 264 L 815 264 L 815 251 L 802 251 L 802 264"/>
  <path class="p4" d="M 789 251 L 802 251 L 802 238 L 789 238 L 789 251"/>
  <path class="p4" d="M 802 251 L 815 251 L 815 238 L 802 238 L 802 251"/>
  <path class="p4" d="M 710 238 L 723 238 L 723 224 L 710 224 L 710 238"/>
  <path class="p4" d="M 723 238 L 736 238 L 736 224 L 723 224 L 723 238"/>
  <path class="p4" d="M 710 224 L 723 224 L 723 211 L 710 211 L 710 224"/>
  <path class="p4" d="M 723 224 L 736 224 L 736 211 L 723 211 L 723 224"/>
  <path class="p4" d="M 736 238 L 749 238 L 749 224 L 736 224 L 736 238"/>
  <path class="p4" d="M 749 238 L 763 238 L 763 224 L 749 224 L 749 238"/>
  <path class="p4" d="M 736 224 L 749 224 L 749 211 L 736 211 L 736 224"/>
  <path class="p4" d="M 749 224 L 763 224 L 763 211 L 749 211 L 749 224"/>
  <path class="p4" d="M 736 211 L 749 211 L 749 198 L 736 198 L 736 211"/>
  <path class="p4" d="M 749 211 L 763 211 L 763 198 L 749 198 L 749 211"/>
  <path class="p4" d="M 736 198 L 749 198 L 749 185 L 736 185 L 736 198"/>
  <path class="p4" d="M 749 198 L 763 198 L 763 185 L 749 185 L 749 198"/>
  <path class="p4" d="M 763 238 L 776 238 L 776 224 L 763 224 L 763 238"/>
  <path class="p4" d="M 776 238 L 789 238 L 789 224 L 776 224 L 776 238"/>
  <path class="p4" d="M 763 224 L 776 224 L 776 211 L 763 211 L 763 224"/>
  <path class="p4" d="M 776 224 L 789 224 L 789 211 L 776 211 L 776 224"/>
  <path class="p4" d="M 789 238 L 802 238 L 802 224 L 789 224 L 789 238"/>
  <path class="p4" d="M 802 238 L 815 238 L 815 224 L 802 224 L 802 238"/>
  <path class="p4" d="M 789 224 L 802 224 L 802 211 L 789 211 L 789 224"/>
  <path class="p4" d="M 802 224 L 815 224 L 815 211 L 802 211 L 802 224"/>
  <path class="p4" d="M 763 211 L 776 211 L 776 198 L 763 198 L 763 211"/>
  <path class="p4" d="M 776 211 L 789 211 L 789 198 L 776 198 L 776 211"/>
  <path class="p4" d="M 763 198 L 776 198 L 776 185 L 763 185 L 763 198"/>
  <path class="p4" d="M 776 198 L 789 198 L 789 185 L 776 185 L 776 198"/>
  <path class="p4" d="M 841 238 L 854 238 L 854 224 L 841 224 L 841 238"/>
  <path class="p4" d="M 854 238 L 868 238 L 868 224 L 854 224 L 854 238"/>
  <path class="p4" d="M 841 224 L 854 224 L 854 211 L 841 211 L 841 224"/>
  <path class="p4" d="M 854 224 L 868 224 L 868 211 L 854 211 L 854 224"/>
  <path class="p4" d="M 763 159 L 776 159 L 776 146 L 763 146 L 763 159"/>
  <path class="p4" d="M 776 159 L 789 159 L 789 146 L 776 146 L 776 159"/>
  <path class="p4" d="M 763 146 L 776 146 L 776 133 L 763 133 L 763 146"/>
  <path class="p4" d="M 776 146 L 789 146 L 789 133 L 776 133 L 776 146"/>
  <path class="p4" d="M 710 369 L 723 369 L 723 356 L 710 356 L 710 369"/>
  <line x1="710" y1="369" x2="710" y2="356"/>
  <path class="p4" d="M 723 369 L 736 369 L 736 356 L 723 356 L 723 369"/>
  <path class="p4" d="M 710 356 L 723 356 L 723 343 L 710 343 L 710 356"/>
  <line x1="710" y1="356" x2="710" y2="343"/>
  <path class="p4" d="M 723 356 L 736 356 L 736 343 L 723 343 L 723 356"/>
  <path class="p4" d="M 736 369 L 749 369 L 749 356 L 736 356 L 736 369"/>
  <path class="p4" d="M 749 369 L 763 369 L 763 356 L 749 356 L 749 369"/>
  <path class="p4" d="M 736 356 L 749 356 L 749 343 L 736 343 L 736 356"/>
  <path class="p4" d="M 749 356 L 763 356 L 763 343 L 749 343 L 749 356"/>
  <path class="p4" d="M 789 395 L 802 395 L 802 382 L 789 382 L 789 395"/>
  <path class="p4" d="M 802 395 L 815 395 L 815 382 L 802 382 L 802 395"/>
  <path class="p4" d="M 789 382 L 802 382 L 802 369 L 789 369 L 789 382"/>
  <path class="p4" d="M 802 382 L 815 382 L 815 369 L 802 369 L 802 382"/>
  <path class="p4" d="M 763 369 L 776 369 L 776 356 L 763 356 L 763 369"/>
  <path class="p4" d="M 776 369 L 789 369 L 789 356 L 776 356 L 776 369"/>
  <path class="p4" d="M 763 356 L 776 356 L 776 343 L 763 343 L 763 356"/>
  <path class="p4" d="M 776 356 L 789 356 L 789 343 L 776 343 L 776 356"/>
  <path class="p4" d="M 789 369 L 802 369 L 802 356 L 789 356 L 789 369"/>
  <path class="p4" d="M 802 369 L 815 369 L 815 356 L 802 356 L 802 369"/>
  <path class="p4" d="M 789 356 L 802 356 L 802 343 L 789 343 L 789 356"/>
  <path class="p4" d="M 802 356 L 815 356 L 815 343 L 802 343 L 802 356"/>
  <path class="p4" d="M 815 395 L 828 395 L 828 382 L 815 382 L 815 395"/>
  <path class="p4" d="M 828 395 L 841 395 L 841 382 L 828 382 L 828 395"/>
  <path class="p4" d="M 815 382 L 828 382 L 828 369 L 815 369 L 815 382"/>
  <path class="p4" d="M 828 382 L 841 382 L 841 369 L 828 369 L 828 382"/>
  <path class="p4" d="M 841 395 L 854 395 L 854 382 L 841 382 L 841 395"/>
  <path class="p4" d="M 854 395 L 868 395 L 868 382 L 854 382 L 854 395"/>
  <path class="p4" d="M 841 382 L 854 382 L 854 369 L 841 369 L 841 382"/>
  <path class="p4" d="M 854 382 L 868 382 L 868 369 L 854 369 L 854 382"/>
  <path class="p4" d="M 815 369 L 828 369 L 828 356 L 815 356 L 815 369"/>
  <path class="p4" d="M 828 369 L 841 369 L 841 356 L 828 356 L 828 369"/>
  <path class="p4" d="M 815 356 L 828 356 L 828 343 L 815 343 L 815 356"/>
  <path class="p4" d="M 828 356 L 841 356 L 841 343 L 828 343 L 828 356"/>
  <path class="p4" d="M 841 369 L 854 369 L 854 356 L 841 356 L 841 369"/>
  <path class="p4" d="M 854 369 L 868 369 L 868 356 L 854 356 L 854 369"/>
  <path class="p4" d="M 841 356 L 854 356 L 854 343 L 841 343 L 841 356"/>
  <path class="p4" d="M 854 356 L 868 356 L 868 343 L 854 343 L 854 356"/>
  <path class="p4" d="M 815 343 L 828 343 L 828 329 L 815 329 L 815 343"/>
  <path class="p4" d="M 828 343 L 841 343 L 841 329 L 828 329 L 828 343"/>
  <path class="p4" d="M 815 329 L 828 329 L 828 316 L 815 316 L 815 329"/>
  <path class="p4" d="M 828 329 L 841 329 L 841 316 L 828 316 L 828 329"/>
  <path class="p4" d="M 841 343 L 854 343 L 854 329 L 841 329 L 841 343"/>
  <path class="p4" d="M 854 343 L 868 343 L 868 329 L 854 329 L 854 343"/>
  <path class="p4" d="M 841 329 L 854 329 L 854 316 L 841 316 L 841 329"/>
  <path class="p4" d="M 854 329 L 868 329 L 868 316 L 854 316 L 854 329"/>
  <path class="p4" d="M 815 316 L 828 316 L 828 303 L 815 303 L 815 316"/>
  <path class="p4" d="M 828 316 L 841 316 L 841 303 L 828 303 L 828 316"/>
  <path class="p4" d="M 815 303 L 828 303 L 828 290 L 815 290 L 815 303"/>
  <path class="p4" d="M 828 303 L 841 303 L 841 290 L 828 290 L 828 303"/>
  <path class="p4" d="M 841 316 L 854 316 L 854 303 L 841 303 L 841 316"/>
  <path class="p4" d="M 854 316 L 868 316 L 868 303 L 854 303 L 854 316"/>
  <path class="p4" d="M 841 303 L 854 303 L 854 290 L 841 290 L 841 303"/>
  <path class="p4" d="M 854 303 L 868 303 L 868 290 L 854 290 L 854 303"/>
  <path class="p4" d="M 631 290 L 644 290 L 644 277 L 631 277 L 631 290"/>
  <line x1="631" y1="290" x2="644" y2="290"/>
  <path class="p4" d="M 644 290 L 658 290 L 658 277 L 644 277 L 644 290"/>
  <line x1="644" y1="290" x2="658" y2="290"/>
  <path class="p4" d="M 631 277 L 644 277 L 644 264 L 631 264 L 631 277"/>
  <path class="p4" d="M 644 277 L 658 277 L 658 264 L 644 264 L 644 277"/>
  <path class="p4" d="M 631 264 L 644 264 L 644 251 L 631 251 L 631 264"/>
  <path class="p4" d="M 644 264 L 658 264 L 658 251 L 644 251 L 644 264"/>
  <path class="p4" d="M 631 251 L 644 251 L 644 238 L 631 238 L 631 251"/>
  <path class="p4" d="M 644 251 L 658 251 L 658 238 L 644 238 L 644 251"/>
  <path class="p4" d="M 631 238 L 644 238 L 644 224 L 631 224 L 631 238"/>
  <path class="p4" d="M 644 238 L 658 238 L 658 224 L 644 224 L 644 238"/>
  <path class="p4" d="M 631 224 L 644 224 L 644 211 L 631 211 L 631 224"/>
  <path class="p4" d="M 644 224 L 658 224 L 658 211 L 644 211 L 644 224"/>
  <path class="p4" d="M 605 211 L 618 211 L 618 198 L 605 198 L 605 211"/>
  <path class="p4" d="M 618 211 L 631 211 L 631 198 L 618 198 L 618 211"/>
  <path class="p4" d="M 605 198 L 618 198 L 618 185 L 605 185 L 605 198"/>
  <path class="p4" d="M 618 198 L 631 198 L 631 185 L 618 185 L 618 198"/>
  <path class="p4" d="M 631 211 L 644 211 L 644 198 L 631 198 L 631 211"/>
  <path class="p4" d="M 644 211 L 658 211 L 658 198 L 644 198 L 644 211"/>
  <path class="p4" d="M 631 198 L 644 198 L 644 185 L 631 185 L 631 198"/>
  <path class="p4" d="M 644 198 L 658 198 L 658 185 L 644 185 L 644 198"/>
  <path class="p4" d="M 605 185 L 618 185 L 618 172 L 605 172 L 605 185"/>
  <path class="p4" d="M 618 185 L 631 185 L 631 172 L 618 172 L 618 185"/>
  <path class="p4" d="M 605 172 L 618 172 L 618 159 L 605 159 L 605 172"/>
  <path class="p4" d="M 618 172 L 631 172 L 631 159 L 618 159 L 618 172"/>
  <path class="p4" d="M 631 185 L 644 185 L 644 172 L 631 172 L 631 185"/>
  <path class="p4" d="M 644 185 L 658 185 L 658 172 L 644 172 L 644 185"/>
  <path class="p4" d="M 631 172 L 644 172 L 644 159 L 631 159 L 631 172"/>
  <path class="p4" d="M 644 172 L 658 172 L 658 159 L 644 159 L 644 172"/>
  <path class="p4" d="M 605 159 L 618 159 L 618 146 L 605 146 L 605 159"/>
  <path class="p4" d="M 618 159 L 631 159 L 631 146 L 618 146 L 618 159"/>
  <path class="p4" d="M 605 146 L 618 146 L 618 133 L 605 133 L 605 146"/>
  <path class="p4" d="M 618 146 L 631 146 L 631 133 L 618 133 L 618 146"/>
  <path class="p4" d="M 631 159 L 644 159 L 644 146 L 631 146 L 631 159"/>
  <path class="p4" d="M 644 159 L 658 159 L 658 146 L 644 146 L 644 159"/>
  <path class="p4" d="M 631 146 L 644 146 L 644 133 L 631 133 L 631 146"/>
  <path class="p4" d="M 644 146 L 658 146 L 658 133 L 644 133 L 644 146"/>
  <path class="p4" d="M 658 185 L 671 185 L 671 172 L 658 172 L 658 185"/>
  <path class="p4" d="M 671 185 L 684 185 L 684 172 L 671 172 L 671 185"/>
  <path class="p4" d="M 658 172 L 671 172 L 671 159 L 658 159 L 658 172"/>
  <path class="p4" d="M 671 172 L 684 172 L 684 159 L 671 159 L 671 172"/>
  <path class="p4" d="M 684 185 L 697 185 L 697 172 L 684 172 L 684 185"/>
  <path class="p4" d="M 697 185 L 710 185 L 710 172 L 697 172 L 697 185"/>
  <path class="p4" d="M 684 172 L 697 172 L 697 159 L 684 159 L 684 172"/>
  <path class="p4" d="M 697 172 L 710 172 L 710 159 L 697 159 L 697 172"/>
  <path class="p4" d="M 658 159 L 671 159 L 671 146 L 658 146 L 658 159"/>
  <path class="p4" d="M 671 159 L 684 159 L 684 146 L 671 146 L 671 159"/>
  <path class="p4" d="M 658 146 L 671 146 L 671 133 L 658 133 L 658 146"/>
  <path class="p4" d="M 671 146 L 684 146 L 684 133 L 671 133 L 671 146"/>
  <path class="p4" d="M 684 159 L 697 159 L 697 146 L 684 146 L 684 159"/>
  <path class="p4" d="M 697 159 L 710 159 L 710 146 L 697 146 L 697 159"/>
  <path class="p4" d="M 684 146 L 697 146 L 697 133 L 684 133 L 684 146"/>
  <path class="p4" d="M 697 146 L 710 146 L 710 133 L 697 133 L 697 146"/>
  <path class="p4" d="M 815 290 L 828 290 L 828 277 L 815 277 L 815 290"/>
  <path class="p4" d="M 828 290 L 841 290 L 841 277 L 828 277 L 828 290"/>
  <path class="p4" d="M 815 277 L 828 277 L 828 264 L 815 264 L 815 277"/>
  <path class="p4" d="M 828 277 L 841 277 L 841 264 L 828 264 L 828 277"/>
  <path class="p4" d="M 841 290 L 854 290 L 854 277 L 841 277 L 841 290"/>
  <path class="p4" d="M 854 290 L 868 290 L 868 277 L 854 277 L 854 290"/>
  <path class="p4" d="M 841 277 L 854 277 L 854 264 L 841 264 L 841 277"/>
  <path class="p4" d="M 854 277 L 868 277 L 868 264 L 854 264 L 854 277"/>
  <path class="p4" d="M 815 264 L 828 264 L 828 251 L 815 251 L 815 264"/>
  <path class="p4" d="M 828 264 L 841 264 L 841 251 L 828 251 L 828 264"/>
  <path class="p4" d="M 815 251 L 828 251 L 828 238 L 815 238 L 815 251"/>
  <path class="p4" d="M 828 251 L 841 251 L 841 238 L 828 238 L 828 251"/>
  <path class="p4" d="M 841 264 L 854 264 L 854 251 L 841 251 L 841 264"/>
  <path class="p4" d="M 854 264 L 868 264 L 868 251 L 854 251 L 854 264"/>
  <path class="p4" d="M 841 251 L 854 251 L 854 238 L 841 238 L 841 251"/>
  <path class="p4" d="M 854 251 L 868 251 L 868 238 L 854 238 L 854 251"/>
  <path class="p4" d="M 868 238 L 881 238 L 881 224 L 868 224 L 868 238"/>
  <path class="p4" d="M 881 238 L 894 238 L 894 224 L 881 224 L 881 238"/>
  <path class="p4" d="M 868 224 L 881 224 L 881 211 L 868 211 L 868 224"/>
  <path class="p4" d="M 881 224 L 894 224 L 894 211 L 881 211 L 881 224"/>
  <path class="p4" d="M 894 238 L 907 238 L 907 224 L 894 224 L 894 238"/>
  <path class="p4" d="M 907 238 L 920 238 L 920 224 L 907 224 L 907 238"/>
  <line x1="920" y1="238" x2="920" y2="224"/>
  <path class="p4" d="M 894 224 L 907 224 L 907 211 L 894 211 L 894 224"/>
  <path class="p4" d="M 907 224 L 920 224 L 920 211 L 907 211 L 907 224"/>
  <line x1="920" y1="224" x2="920" y2="211"/>
  <path class="p4" d="M 868 211 L 881 211 L 881 198 L 868 198 L 868 211"/>
  <path class="p4" d="M 881 211 L 894 211 L 894 198 L 881 198 L 881 211"/>
  <path class="p4" d="M 868 198 L 881 198 L 881 185 L 868 185 L 868 198"/>
  <path class="p4" d="M 881 198 L 894 198 L 894 185 L 881 185 L 881 198"/>
  <path class="p4" d="M 894 211 L 907 211 L 907 198 L 894 198 L 894 211"/>
  <path class="p4" d="M 907 211 L 920 211 L 920 198 L 907 198 L 907 211"/>
  <line x1="920" y1="211" x2="920" y2="198"/>
  <path class="p4" d="M 894 198 L 907 198 L 907 185 L 894 185 L 894 198"/>
  <path class="p4" d="M 907 198 L 920 198 L 920 185 L 907 185 L 907 198"/>
  <line x1="920" y1="198" x2="920" y2="185"/>
  <path class="p4" d="M 710 185 L 723 185 L 723 172 L 710 172 L 710 185"/>
  <path class="p4" d="M 723 185 L 736 185 L 736 172 L 723 172 L 723 185"/>
  <path class="p4" d="M 710 172 L 723 172 L 723 159 L 710 159 L 710 172"/>
  <path class="p4" d="M 723 172 L 736 172 L 736 159 L 723 159 L 723 172"/>
  <path class="p4" d="M 736 185 L 749 185 L 749 172 L 736 172 L 736 185"/>
  <path class="p4" d="M 749 185 L 763 185 L 763 172 L 749 172 L 749 185"/>
  <path class="p4" d="M 736 172 L 749 172 L 749 159 L 736 159 L 736 172"/>
  <path class="p4" d="M 749 172 L 763 172 L 763 159 L 749 159 L 749 172"/>
  <path class="p4" d="M 710 159 L 723 159 L 723 146 L 710 146 L 710 159"/>
  <path class="p4" d="M 723 159 L 736 159 L 736 146 L 723 146 L 723 159"/>
  <path class="p4" d="M 710 146 L 723 146 L 723 133 L 710 133 L 710 146"/>
  <path class="p4" d="M 723 146 L 736 146 L 736 133 L 723 133 L 723 146"/>
  <path class="p4" d="M 736 159 L 749 159 L 749 146 L 736 146 L 736 159"/>
  <path class="p4" d="M 749 159 L 763 159 L 763 146 L 749 146 L 749 159"/>
  <path class="p4" d="M 736 146 L 749 146 L 749 133 L 736 133 L 736 146"/>
  <path class="p4" d="M 749 146 L 763 146 L 763 133 L 749 133 L 749 146"/>
  <path class="p4" d="M 763 133 L 776 133 L 776 119 L 763 119 L 763 133"/>
  <path class="p4" d="M 776 133 L 789 133 L 789 119 L 776 119 L 776 133"/>
  <path class="p4" d="M 763 119 L 776 119 L 776 106 L 763 106 L 763 119"/>
  <path class="p4" d="M 776 119 L 789 119 L 789 106 L 776 106 L 776 119"/>
  <path class="p4" d="M 789 133 L 802 133 L 802 119 L 789 119 L 789 133"/>
  <path class="p4" d="M 802 133 L 815 133 L 815 119 L 802 119 L 802 133"/>
  <path class="p4" d="M 789 119 L 802 119 L 802 106 L 789 106 L 789 119"/>
  <path class="p4" d="M 802 119 L 815 119 L 815 106 L 802 106 L 802 119"/>
  <path class="p4" d="M 763 106 L 776 106 L 776 93 L 763 93 L 763 106"/>
  <path class="p4" d="M 776 106 L 789 106 L 789 93 L 776 93 L 776 106"/>
  <path class="p4" d="M 763 93 L 776 93 L 776 80 L 763 80 L 763 93"/>
  <line x1="763" y1="80" x2="776" y2="80"/>
  <path class="p4" d="M 776 93 L 789 93 L 789 80 L 776 80 L 776 93"/>
  <line x1="776" y1="80" x2="789" y2="80"/>
  <path class="p4" d="M 789 106 L 802 106 L 802 93 L 789 93 L 789 106"/>
  <path class="p4" d="M 802 106 L 815 106 L 815 93 L 802 93 L 802 106"/>
  <path class="p4" d="M 789 93 L 802 93 L 802 80 L 789 80 L 789 93"/>
  <line x1="789" y1="80" x2="802" y2="80"/>
  <path class="p4" d="M 802 93 L 815 93 L 815 80 L 802 80 L 802 93"/>
  <line x1="802" y1="80" x2="815" y2="80"/>
  <path class="p4" d="M 868 185 L 881 185 L 881 172 L 868 172 L 868 185"/>
  <path class="p4" d="M 881 185 L 894 185 L 894 172 L 881 172 L 881 185"/>
  <path class="p4" d="M 868 172 L 881 172 L 881 159 L 868 159 L 868 172"/>
  <path class="p4" d="M 881 172 L 894 172 L 894 159 L 881 159 L 881 172"/>
  <path class="p4" d="M 894 185 L 907 185 L 907 172 L 894 172 L 894 185"/>
  <path class="p4" d="M 907 185 L 920 185 L 920 172 L 907 172 L 907 185"/>
  <line x1="920" y1="185" x2="920" y2="172"/>
  <path class="p4" d="M 894 172 L 907 172 L 907 159 L 894 159 L 894 172"/>
  <path class="p4" d="M 907 172 L 920 172 L 920 159 L 907 159 L 907 172"/>
  <line x1="920" y1="172" x2="920" y2="159"/>
  <path class="p4" d="M 815 133 L 828 133 L 828 119 L 815 119 L 815 133"/>
  <path class="p4" d="M 828 133 L 841 133 L 841 119 L 828 119 L 828 133"/>
  <path class="p4" d="M 815 119 L 828 119 L 828 106 L 815 106 L 815 119"/>
  <path class="p4" d="M 828 119 L 841 119 L 841 106 L 828 106 L 828 119"/>
  <path class="p4" d="M 815 106 L 828 106 L 828 93 L 815 93 L 815 106"/>
  <path class="p4" d="M 828 106 L 841 106 L 841 93 L 828 93 L 828 106"/>
  <path class="p4" d="M 815 93 L 828 93 L 828 80 L 815 80 L 815 93"/>
  <line x1="815" y1="80" x2="828" y2="80"/>
  <path class="p4" d="M 828 93 L 841 93 L 841 80 L 828 80 L 828 93"/>
  <line x1="828" y1="80" x2="841" y2="80"/>
  <path class="p4" d="M 789 448 L 802 448 L 802 434 L 789 434 L 789 448"/>
  <path class="p4" d="M 802 448 L 815 448 L 815 434 L 802 434 L 802 448"/>
  <path class="p4" d="M 789 434 L 802 434 L 802 421 L 789 421 L 789 434"/>
  <path class="p4" d="M 802 434 L 815 434 L 815 421 L 802 421 L 802 434"/>
  <path class="p4" d="M 789 421 L 802 421 L 802 408 L 789 408 L 789 421"/>
  <path class="p4" d="M 802 421 L 815 421 L 815 408 L 802 408 L 802 421"/>
  <path class="p4" d="M 789 408 L 802 408 L 802 395 L 789 395 L 789 408"/>
  <path class="p4" d="M 802 408 L 815 408 L 815 395 L 802 395 L 802 408"/>
  <path class="p4" d="M 553 211 L 566 211 L 566 198 L 553 198 L 553 211"/>
  <path class="p4" d="M 566 211 L 579 211 L 579 198 L 566 198 L 566 211"/>
  <path class="p4" d="M 553 198 L 566 198 L 566 185 L 553 185 L 553 198"/>
  <path class="p4" d="M 566 198 L 579 198 L 579 185 L 566 185 L 566 198"/>
  <path class="p4" d="M 579 211 L 592 211 L 592 198 L 579 198 L 579 211"/>
  <path class="p4" d="M 592 211 L 605 211 L 605 198 L 592 198 L 592 211"/>
  <path class="p4" d="M 579 198 L 592 198 L 592 185 L 579 185 L 579 198"/>
  <path class="p4" d="M 592 198 L 605 198 L 605 185 L 592 185 L 592 198"/>
  <path class="p5" d="M 710 316 L 717 316 L 717 310 L 710 310 L 710 316"/>
  <line x1="710" y1="316" x2="710" y2="310"/>
  <path class="p5" d="M 717 316 L 723 316 L 723 310 L 717 310 L 717 316"/>
  <path class="p5" d="M 710 310 L 717 310 L 717 303 L 710 303 L 710 310"/>
  <line x1="710" y1="310" x2="710" y2="303"/>
  <path class="p5" d="M 717 310 L 723 310 L 723 303 L 717 303 L 717 310"/>
  <path class="p5" d="M 723 316 L 730 316 L 730 310 L 723 310 L 723 316"/>
  <path class="p5" d="M 730 316 L 736 316 L 736 310 L 730 310 L 730 316"/>
  <path class="p5" d="M 723 310 L 730 310 L 730 303 L 723 303 L 723 310"/>
  <path class="p5" d="M 730 310 L 736 310 L 736 303 L 730 303 L 730 310"/>
  <path class="p5" d="M 710 303 L 717 303 L 717 297 L 710 297 L 710 303"/>
  <line x1="710" y1="303" x2="710" y2="297"/>
  <path class="p5" d="M 717 303 L 723 303 L 723 297 L 717 297 L 717 303"/>
  <path class="p5" d="M 710 297 L 717 297 L 717 290 L 710 290 L 710 297"/>
  <line x1="710" y1="297" x2="710" y2="290"/>
  <path class="p5" d="M 717 297 L 723 297 L 723 290 L 717 290 L 717 297"/>
  <path class="p5" d="M 723 303 L 730 303 L 730 297 L 723 297 L 723 303"/>
  <path class="p5" d="M 730 303 L 736 303 L 736 297 L 730 297 L 730 303"/>
  <path class="p5" d="M 723 297 L 730 297 L 730 290 L 723 290 L 723 297"/>
  <path class="p5" d="M 730 297 L 736 297 L 736 290 L 730 290 L 730 297"/>
  <path class="p5" d="M 684 290 L 690 290 L 690 283 L 684 283 L 684 290"/>
  <line x1="684" y1="290" x2="690" y2="290"/>
  <path class="p5" d="M 690 290 L 697 290 L 697 283 L 690 283 L 690 290"/>
  <line x1="690" y1="290" x2="697" y2="290"/>
  <path class="p5" d="M 684 283 L 690 283 L 690 277 L 684 277 L 684 283"/>
  <path class="p5" d="M 690 283 L 697 283 L 697 277 L 690 277 L 690 283"/>
  <path class="p5" d="M 697 290 L 703 290 L 703 283 L 697 283 L 697 290"/>
  <line x1="697" y1="290" x2="703" y2="290"/>
  <path class="p5" d="M 703 290 L 710 290 L 710 283 L 703 283 L 703 290"/>
  <line x1="703" y1="290" x2="710" y2="290"/>
  <path class="p5" d="M 697 283 L 703 283 L 703 277 L 697 277 L 697 283"/>
  <path class="p5" d="M 703 283 L 710 283 L 710 277 L 703 277 L 703 283"/>
  <path class="p5" d="M 684 277 L 690 277 L 690 270 L 684 270 L 684 277"/>
  <path class="p5" d="M 690 277 L 697 277 L 697 270 L 690 270 L 690 277"/>
  <path class="p5" d="M 684 270 L 690 270 L 690 264 L 684 264 L 684 270"/>
  <path class="p5" d="M 690 270 L 697 270 L 697 264 L 690 264 L 690 270"/>
  <path class="p5" d="M 697 277 L 703 277 L 703 270 L 697 270 L 697 277"/>
  <path class="p5" d="M 703 277 L 710 277 L 710 270 L 703 270 L 703 277"/>
  <path class="p5" d="M 697 270 L 703 270 L 703 264 L 697 264 L 697 270"/>
  <path class="p5" d="M 703 270 L 710 270 L 710 264 L 703 264 L 703 270"/>
  <path class="p5" d="M 710 290 L 717 290 L 717 283 L 710 283 L 710 290"/>
  <path class="p5" d="M 717 290 L 723 290 L 723 283 L 717 283 L 717 290"/>
  <path class="p5" d="M 710 283 L 717 283 L 717 277 L 710 277 L 710 283"/>
  <path class="p5" d="M 717 283 L 723 283 L 723 277 L 717 277 L 717 283"/>
  <path class="p5" d="M 802 198 L 808 198 L 808 192 L 802 192 L 802 198"/>
  <path class="p5" d="M 808 198 L 815 198 L 815 192 L 808 192 L 808 198"/>
  <path class="p5" d="M 802 192 L 808 192 L 808 185 L 802 185 L 802 192"/>
  <path class="p5" d="M 808 192 L 815 192 L 815 185 L 808 185 L 808 192"/>
  <path class="p5" d="M 815 238 L 822 238 L 822 231 L 815 231 L 815 238"/>
  <path class="p5" d="M 822 238 L 828 238 L 828 231 L 822 231 L 822 238"/>
  <path class="p5" d="M 815 231 L 822 231 L 822 224 L 815 224 L 815 231"/>
  <path class="p5" d="M 822 231 L 828 231 L 828 224 L 822 224 L 822 231"/>
  <path class="p5" d="M 815 198 L 822 198 L 822 192 L 815 192 L 815 198"/>
  <path class="p5" d="M 822 198 L 828 198 L 828 192 L 822 192 L 822 198"/>
  <path class="p5" d="M 815 192 L 822 192 L 822 185 L 815 185 L 815 192"/>
  <path class="p5" d="M 822 192 L 828 192 L 828 185 L 822 185 L 822 192"/>
  <path class="p5" d="M 828 198 L 835 198 L 835 192 L 828 192 L 828 198"/>
  <path class="p5" d="M 835 198 L 841 198 L 841 192 L 835 192 L 835 198"/>
  <path class="p5" d="M 828 192 L 835 192 L 835 185 L 828 185 L 828 192"/>
  <path class="p5" d="M 835 192 L 841 192 L 841 185 L 835 185 L 835 192"/>
  <path class="p5" d="M 763 185 L 769 185 L 769 178 L 763 178 L 763 185"/>
  <path class="p5" d="M 769 185 L 776 185 L 776 178 L 769 178 L 769 185"/>
  <path class="p5" d="M 763 178 L 769 178 L 769 172 L 763 172 L 763 178"/>
  <path class="p5" d="M 769 178 L 776 178 L 776 172 L 769 172 L 769 178"/>
  <path class="p5" d="M 802 185 L 808 185 L 808 178 L 802 178 L 802 185"/>
  <path class="p5" d="M 808 185 L 815 185 L 815 178 L 808 178 L 808 185"/>
  <path class="p5" d="M 802 178 L 808 178 L 808 172 L 802 172 L 802 178"/>
  <path class="p5" d="M 808 178 L 815 178 L 815 172 L 808 172 L 808 178"/>
  <path class="p5" d="M 802 172 L 808 172 L 808 165 L 802 165 L 802 172"/>
  <path class="p5" d="M 808 172 L 815 172 L 815 165 L 808 165 L 808 172"/>
  <path class="p5" d="M 802 165 L 808 165 L 808 159 L 802 159 L 802 165"/>
  <path class="p5" d="M 808 165 L 815 165 L 815 159 L 808 159 L 808 165"/>
  <path class="p5" d="M 815 185 L 822 185 L 822 178 L 815 178 L 815 185"/>
  <path class="p5" d="M 822 185 L 828 185 L 828 178 L 822 178 L 822 185"/>
  <path class="p5" d="M 815 178 L 822 178 L 822 172 L 815 172 L 815 178"/>
  <path class="p5" d="M 822 178 L 828 178 L 828 172 L 822 172 L 822 178"/>

</svg>