<svg width="1000" height="1000" xmlns="http://www.w3.org/2000/svg" version="1.1">


<!-- internal style sheet -->
<style type="text/css"><![CDATA[
 rect.background{fill:white}
 rect{fill:none; stroke:rgb(25,25,25); stroke-width:2}
 text{font-family:Helvetica; text-anchor:middle; fill:rgb(25,25,25)}
 line{stroke:rgb(25,25,25); stroke-width:4}
 path{fill:none; stroke:rgb(25,25,25); stroke-width:2}
 circle{fill:white; stroke:black; stroke-width:2}

 path.p0{fill:rgb(0,102,255); stroke:rgb(25,25,25); stroke-width:2}
 path.ps0{fill:rgb(0,77,191); stroke:rgb(20,20,20); stroke-width:2}
 rect.r0{fill:rgb(0,102,255); stroke:rgb(25,25,25); stroke-width:2}
 path.p1{fill:rgb(0,255,178); stroke:rgb(25,25,25); stroke-width:2}
 path.ps1{fill:rgb(0,191,134); stroke:rgb(20,20,20); stroke-width:2}
 rect.r1{fill:rgb(0,255,178); stroke:rgb(25,25,25); stroke-width:2}
 path.p2{fill:rgb(51,255,0); stroke:rgb(25,25,25); stroke-width:2}
 path.ps2{fill:rgb(38,191,0); stroke:rgb(20,20,20); stroke-width:2}
 rect.r2{fill:rgb(51,255,0); stroke:rgb(25,25,25); stroke-width:2}
 path.p3{fill:rgb(255,230,0); stroke:rgb(25,25,25); stroke-width:2}
 path.ps3{fill:rgb(191,173,0); stroke:rgb(20,20,20); stroke-width:2}
 rect.r3{fill:rgb(255,230,0); stroke:rgb(25,25,25); stroke-width:2}
 path.p4{fill:rgb(255,0,0); stroke:rgb(25,25,25); stroke-width:2}
 path.ps4{fill:rgb(191,0,0); stroke:rgb(20,20,20); stroke-width:2}
 rect.r4{fill:rgb(255,0,0); stroke:rgb(25,25,25); stroke-width:2}
]]></style>

 <rect class="background" width="1000" height="1000"/>
  <!-- cells -->
  <path class="p0" d="M 80 920 L 290 920 L 290 710 L 80 710 L 80 920"/>
  <line x1="80" y1="920" x2="80" y2="710"/>
  <line x1="80" y1="920" x2="290" y2="920"/>
  <path class="p0" d="M 290 920 L 500 920 L 500 710 L 290 710 L 290 920"/>
  <line x1="290" y1="920" x2="500" y2="920"/>
  <line x1="290" y1="710" x2="500" y2="710"/>
  <path class="p0" d="M 500 920 L 710 920 L 710 710 L 500 710 L 500 920"/>
  <line x1="500" y1="920" x2="710" y2="920"/>
  <line x1="500" y1="710" x2="710" y2="710"/>
  <path class="p0" d="M 80 710 L 290 710 L 290 500 L 80 500 L 80 710"/>
  <line x1="80" y1="710" x2="80" y2="500"/>
  <line x1="290" y1="710" x2="290" y2="500"/>
  <path class="p0" d="M 80 500 L 290 500 L 290 290 L 80 290 L 80 500"/>
  <line x1="80" y1="500" x2="80" y2="290"/>
  <line x1="290" y1="500" x2="290" y2="290"/>
  <path class="p1" d="M 710 710 L 815 710 L 815 605 L 710 605 L 710 710"/>
  <line x1="710" y1="710" x2="710" y2="605"/>
  <path class="p1" d="M 815 710 L 920 710 L 920 605 L 815 605 L 815 710"/>
  <line x1="920" y1="710" x2="920" y2="605"/>
  <path class="p1" d="M 290 290 L 395 290 L 395 185 L 290 185 L 290 290"/>
  <line x1="290" y1="290" x2="395" y2="290"/>
  <path class="p1" d="M 290 185 L 395 185 L 395 80 L 290 80 L 290 185"/>
  <line x1="290" y1="80" x2="395" y2="80"/>
  <path class="p1" d="M 710 920 L 815 920 L 815 815 L 710 815 L 710 920"/>
  <line x1="710" y1="920" x2="815" y2="920"/>
  <path class="p1" d="M 815 920 L 920 920 L 920 815 L 815 815 L 815 920"/>
  <line x1="920" y1="920" x2="920" y2="815"/>
  <line x1="815" y1="920" x2="920" y2="920"/>
  <path class="p1" d="M 710 815 L 815 815 L 815 710 L 710 710 L 710 815"/>
  <path class="p1" d="M 815 815 L 920 815 L 920 710 L 815 710 L 815 815"/>
  <line x1="920" y1="815" x2="920" y2="710"/>
  <path class="p1" d="M 80 290 L 185 290 L 185 185 L 80 185 L 80 290"/>
  <line x1="80" y1="290" x2="80" y2="185"/>
  <path class="p1" d="M 185 290 L 290 290 L 290 185 L 185 185 L 185 290"/>
  <path class="p1" d="M 80 185 L 185 185 L 185 80 L 80 80 L 80 185"/>
  <line x1="80" y1="185" x2="80" y2="80"/>
  <line x1="80" y1="80" x2="185" y2="80"/>
  <path class="p1" d="M 185 185 L 290 185 L 290 80 L 185 80 L 185 185"/>
  <line x1="185" y1="80" x2="290" y2="80"/>
  <path class="p2" d="M 710 500 L 763 500 L 763 448 L 710 448 L 710 500"/>
  <line x1="710" y1="500" x2="710" y2="448"/>
  <path class="p2" d="M 763 500 L 815 500 L 815 448 L 763 448 L 763 500"/>
  <path class="p2" d="M 815 500 L 868 500 L 868 448 L 815 448 L 815 500"/>
  <path class="p2" d="M 868 500 L 920 500 L 920 448 L 868 448 L 868 500"/>
  <line x1="920" y1="500" x2="920" y2="448"/>
  <path class="p2" d="M 815 448 L 868 448 L 868 395 L 815 395 L 815 448"/>
  <path class="p2" d="M 868 448 L 920 448 L 920 395 L 868 395 L 868 448"/>
  <line x1="920" y1="448" x2="920" y2="395"/>
  <path class="p2" d="M 500 290 L 553 290 L 553 238 L 500 238 L 500 290"/>
  <line x1="500" y1="290" x2="553" y2="290"/>
  <path class="p2" d="M 500 238 L 553 238 L 553 185 L 500 185 L 500 238"/>
  <path class="p2" d="M 500 185 L 553 185 L 553 133 L 500 133 L 500 185"/>
  <path class="p2" d="M 553 185 L 605 185 L 605 133 L 553 133 L 553 185"/>
  <path class="p2" d="M 500 133 L 553 133 L 553 80 L 500 80 L 500 133"/>
  <line x1="500" y1="80" x2="553" y2="80"/>
  <path class="p2" d="M 553 133 L 605 133 L 605 80 L 553 80 L 553 133"/>
  <line x1="553" y1="80" x2="605" y2="80"/>
  <path class="p2" d="M 710 605 L 763 605 L 763 553 L 710 553 L 710 605"/>
  <line x1="710" y1="605" x2="710" y2="553"/>
  <path class="p2" d="M 763 605 L 815 605 L 815 553 L 763 553 L 763 605"/>
  <path class="p2" d="M 710 553 L 763 553 L 763 500 L 710 500 L 710 553"/>
  <line x1="710" y1="553" x2="710" y2="500"/>
  <path class="p2" d="M 763 553 L 815 553 L 815 500 L 763 500 L 763 553"/>
  <path class="p2" d="M 815 605 L 868 605 L 868 553 L 815 553 L 815 605"/>
  <path class="p2" d="M 868 605 L 920 605 L 920 553 L 868 553 L 868 605"/>
  <line x1="920" y1="605" x2="920" y2="553"/>
  <path class="p2" d="M 815 553 L 868 553 L 868 500 L 815 500 L 815 553"/>
  <path class="p2" d="M 868 553 L 920 553 L 920 500 L 868 500 L 868 553"/>
  <line x1="920" y1="553" x2="920" y2="500"/>
  <path class="p2" d="M 395 290 L 448 290 L 448 238 L 395 238 L 395 290"/>
  <line x1="395" y1="290" x2="448" y2="290"/>
  <path class="p2" d="M 448 290 L 500 290 L 500 238 L 448 238 L 448 290"/>
  <line x1="448" y1="290" x2="500" y2="290"/>
  <path class="p2" d="M 395 238 L 448 238 L 448 185 L 395 185 L 395 238"/>
  <path class="p2" d="M 448 238 L 500 238 L 500 185 L 448 185 L 448 238"/>
  <path class="p2" d="M 395 185 L 448 185 L 448 133 L 395 133 L 395 185"/>
  <path class="p2" d="M 448 185 L 500 185 L 500 133 L 448 133 L 448 185"/>
  <path class="p2" d="M 395 133 L 448 133 L 448 80 L 395 80 L 395 133"/>
  <line x1="395" y1="80" x2="448" y2="80"/>
  <path class="p2" d="M 448 133 L 500 133 L 500 80 L 448 80 L 448 133"/>
  <line x1="448" y1="80" x2="500" y2="80"/>
  <path class="p3" d="M 710 343 L 736 343 L 736 316 L 710 316 L 710 343"/>
  <line x1="710" y1="343" x2="710" y2="316"/>
  <path class="p3" d="M 736 343 L 763 343 L 763 316 L 736 316 L 736 343"/>
  <path class="p3" d="M 736 316 L 763 316 L 763 290 L 736 290 L 736 316"/>
  <path class="p3" d="M 763 343 L 789 343 L 789 316 L 763 316 L 763 343"/>
  <path class="p3" d="M 763 316 L 789 316 L 789 290 L 763 290 L 763 316"/>
  <path class="p3" d="M 789 316 L 815 316 L 815 290 L 789 290 L 789 316"/>
  <path class="p3" d="M 658 290 L 684 290 L 684 264 L 658 264 L 658 290"/>
  <line x1="658" y1="290" x2="684" y2="290"/>
  <path class="p3" d="M 658 264 L 684 264 L 684 238 L 658 238 L 658 264"/>
  <path class="p3" d="M 684 264 L 710 264 L 710 238 L 684 238 L 684 264"/>
  <path class="p3" d="M 658 238 L 684 238 L 684 211 L 658 211 L 658 238"/>
  <path class="p3" d="M 684 238 L 710 238 L 710 211 L 684 211 L 684 238"/>
  <path class="p3" d="M 684 211 L 710 211 L 710 185 L 684 185 L 684 211"/>
  <path class="p3" d="M 736 290 L 763 290 L 763 264 L 736 264 L 736 290"/>
  <path class="p3" d="M 710 264 L 736 264 L 736 238 L 710 238 L 710 264"/>
  <path class="p3" d="M 736 264 L 763 264 L 763 238 L 736 238 L 736 264"/>
  <path class="p3" d="M 763 290 L 789 290 L 789 264 L 763 264 L 763 290"/>
  <path class="p3" d="M 763 264 L 789 264 L 789 238 L 763 238 L 763 264"/>
  <path class="p3" d="M 789 264 L 815 264 L 815 238 L 789 238 L 789 264"/>
  <path class="p3" d="M 710 238 L 736 238 L 736 211 L 710 211 L 710 238"/>
  <path class="p3" d="M 736 238 L 763 238 L 763 211 L 736 211 L 736 238"/>
  <path class="p3" d="M 736 211 L 763 211 L 763 185 L 736 185 L 736 211"/>
  <path class="p3" d="M 763 238 L 789 238 L 789 211 L 763 211 L 763 238"/>
  <path class="p3" d="M 789 238 L 815 238 L 815 211 L 789 211 L 789 238"/>
  <path class="p3" d="M 763 211 L 789 211 L 789 185 L 763 185 L 763 211"/>
  <path class="p3" d="M 841 238 L 868 238 L 868 211 L 841 211 L 841 238"/>
  <path class="p3" d="M 763 159 L 789 159 L 789 133 L 763 133 L 763 159"/>
  <path class="p3" d="M 710 395 L 736 395 L 736 369 L 710 369 L 710 395"/>
  <line x1="710" y1="395" x2="710" y2="369"/>
  <path class="p3" d="M 736 395 L 763 395 L 763 369 L 736 369 L 736 395"/>
  <path class="p3" d="M 710 369 L 736 369 L 736 343 L 710 343 L 710 369"/>
  <line x1="710" y1="369" x2="710" y2="343"/>
  <path class="p3" d="M 736 369 L 763 369 L 763 343 L 736 343 L 736 369"/>
  <path class="p3" d="M 763 395 L 789 395 L 789 369 L 763 369 L 763 395"/>
  <path class="p3" d="M 789 395 L 815 395 L 815 369 L 789 369 L 789 395"/>
  <path class="p3" d="M 763 369 L 789 369 L 789 343 L 763 343 L 763 369"/>
  <path class="p3" d="M 789 369 L 815 369 L 815 343 L 789 343 L 789 369"/>
  <path class="p3" d="M 815 395 L 841 395 L 841 369 L 815 369 L 815 395"/>
  <path class="p3" d="M 841 395 L 868 395 L 868 369 L 841 369 L 841 395"/>
  <path class="p3" d="M 815 369 L 841 369 L 841 343 L 815 343 L 815 369"/>
  <path class="p3" d="M 841 369 L 868 369 L 868 343 L 841 343 L 841 369"/>
  <path class="p3" d="M 868 395 L 894 395 L 894 369 L 868 369 L 868 395"/>
  <path class="p3" d="M 894 395 L 920 395 L 920 369 L 894 369 L 894 395"/>
  <line x1="920" y1="395" x2="920" y2="369"/>
  <path class="p3" d="M 868 369 L 894 369 L 894 343 L 868 343 L 868 369"/>
  <path class="p3" d="M 894 369 L 920 369 L 920 343 L 894 343 L 894 369"/>
  <line x1="920" y1="369" x2="920" y2="343"/>
  <path class="p3" d="M 815 343 L 841 343 L 841 316 L 815 316 L 815 343"/>
  <path class="p3" d="M 841 343 L 868 343 L 868 316 L 841 316 L 841 343"/>
  <path class="p3" d="M 815 316 L 841 316 L 841 290 L 815 290 L 815 316"/>
  <path class="p3" d="M 841 316 L 868 316 L 868 290 L 841 290 L 841 316"/>
  <path class="p3" d="M 868 343 L 894 343 L 894 316 L 868 316 L 868 343"/>
  <path class="p3" d="M 894 343 L 920 343 L 920 316 L 894 316 L 894 343"/>
  <line x1="920" y1="343" x2="920" y2="316"/>
  <path class="p3" d="M 868 316 L 894 316 L 894 290 L 868 290 L 868 316"/>
  <path class="p3" d="M 894 316 L 920 316 L 920 290 L 894 290 L 894 316"/>
  <line x1="920" y1="316" x2="920" y2="290"/>
  <path class="p3" d="M 605 290 L 631 290 L 631 264 L 605 264 L 605 290"/>
  <line x1="605" y1="290" x2="631" y2="290"/>
  <path class="p3" d="M 631 290 L 658 290 L 658 264 L 631 264 L 631 290"/>
  <line x1="631" y1="290" x2="658" y2="290"/>
  <path class="p3" d="M 605 264 L 631 264 L 631 238 L 605 238 L 605 264"/>
  <path class="p3" d="M 631 264 L 658 264 L 658 238 L 631 238 L 631 264"/>
  <path class="p3" d="M 605 238 L 631 238 L 631 211 L 605 211 L 605 238"/>
  <path class="p3" d="M 631 238 L 658 238 L 658 211 L 631 211 L 631 238"/>
  <path class="p3" d="M 605 211 L 631 211 L 631 185 L 605 185 L 605 211"/>
  <path class="p3" d="M 631 211 L 658 211 L 658 185 L 631 185 L 631 211"/>
  <path class="p3" d="M 605 185 L 631 185 L 631 159 L 605 159 L 605 185"/>
  <path class="p3" d="M 631 185 L 658 185 L 658 159 L 631 159 L 631 185"/>
  <path class="p3" d="M 605 159 L 631 159 L 631 133 L 605 133 L 605 159"/>
  <path class="p3" d="M 631 159 L 658 159 L 658 133 L 631 133 L 631 159"/>
  <path class="p3" d="M 658 185 L 684 185 L 684 159 L 658 159 L 658 185"/>
  <path class="p3" d="M 684 185 L 710 185 L 710 159 L 684 159 L 684 185"/>
  <path class="p3" d="M 658 159 L 684 159 L 684 133 L 658 133 L 658 159"/>
  <path class="p3" d="M 684 159 L 710 159 L 710 133 L 684 133 L 684 159"/>
  <path class="p3" d="M 605 133 L 631 133 L 631 106 L 605 106 L 605 133"/>
  <path class="p3" d="M 631 133 L 658 133 L 658 106 L 631 106 L 631 133"/>
  <path class="p3" d="M 605 106 L 631 106 L 631 80 L 605 80 L 605 106"/>
  <line x1="605" y1="80" x2="631" y2="80"/>
  <path class="p3" d="M 631 106 L 658 106 L 658 80 L 631 80 L 631 106"/>
  <line x1="631" y1="80" x2="658" y2="80"/>
  <path class="p3" d="M 658 133 L 684 133 L 684 106 L 658 106 L 658 133"/>
  <path class="p3" d="M 684 133 L 710 133 L 710 106 L 684 106 L 684 133"/>
  <path class="p3" d="M 658 106 L 684 106 L 684 80 L 658 80 L 658 106"/>
  <line x1="658" y1="80" x2="684" y2="80"/>
  <path class="p3" d="M 684 106 L 710 106 L 710 80 L 684 80 L 684 106"/>
  <line x1="684" y1="80" x2="710" y2="80"/>
  <path class="p3" d="M 815 290 L 841 290 L 841 264 L 815 264 L 815 290"/>
  <path class="p3" d="M 841 290 L 868 290 L 868 264 L 841 264 L 841 290"/>
  <path class="p3" d="M 815 264 L 841 264 L 841 238 L 815 238 L 815 264"/>
  <path class="p3" d="M 841 264 L 868 264 L 868 238 L 841 238 L 841 264"/>
  <path class="p3" d="M 868 290 L 894 290 L 894 264 L 868 264 L 868 290"/>
  <path class="p3" d="M 894 290 L 920 290 L 920 264 L 894 264 L 894 290"/>
  <line x1="920" y1="290" x2="920" y2="264"/>
  <path class="p3" d="M 868 264 L 894 264 L 894 238 L 868 238 L 868 264"/>
  <path class="p3" d="M 894 264 L 920 264 L 920 238 L 894 238 L 894 264"/>
  <line x1="920" y1="264" x2="920" y2="238"/>
  <path class="p3" d="M 868 238 L 894 238 L 894 211 L 868 211 L 868 238"/>
  <path class="p3" d="M 894 238 L 920 238 L 920 211 L 894 211 L 894 238"/>
  <line x1="920" y1="238" x2="920" y2="211"/>
  <path class="p3" d="M 868 211 L 894 211 L 894 185 L 868 185 L 868 211"/>
  <path class="p3" d="M 894 211 L 920 211 L 920 185 L 894 185 L 894 211"/>
  <line x1="920" y1="211" x2="920" y2="185"/>
  <path class="p3" d="M 710 185 L 736 185 L 736 159 L 710 159 L 710 185"/>
  <path class="p3" d="M 736 185 L 763 185 L 763 159 L 736 159 L 736 185"/>
  <path class="p3" d="M 710 159 L 736 159 L 736 133 L 710 133 L 710 159"/>
  <path class="p3" d="M 736 159 L 763 159 L 763 133 L 736 133 L 736 159"/>
  <path class="p3" d="M 710 133 L 736 133 L 736 106 L 710 106 L 710 133"/>
  <path class="p3" d="M 736 133 L 763 133 L 763 106 L 736 106 L 736 133"/>
  <path class="p3" d="M 710 106 L 736 106 L 736 80 L 710 80 L 710 106"/>
  <line x1="710" y1="80" x2="736" y2="80"/>
  <path class="p3" d="M 736 106 L 763 106 L 763 80 L 736 80 L 736 106"/>
  <line x1="736" y1="80" x2="763" y2="80"/>
  <path class="p3" d="M 763 133 L 789 133 L 789 106 L 763 106 L 763 133"/>
  <path class="p3" d="M 789 133 L 815 133 L 815 106 L 789 106 L 789 133"/>
  <path class="p3" d="M 763 106 L 789 106 L 789 80 L 763 80 L 763 106"/>
  <line x1="763" y1="80" x2="789" y2="80"/>
  <path class="p3" d="M 789 106 L 815 106 L 815 80 L 789 80 L 789 106"/>
  <line x1="789" y1="80" x2="815" y2="80"/>
  <path class="p3" d="M 868 185 L 894 185 L 894 159 L 868 159 L 868 185"/>
  <path class="p3" d="M 894 185 L 920 185 L 920 159 L 894 159 L 894 185"/>
  <line x1="920" y1="185" x2="920" y2="159"/>
  <path class="p3" d="M 868 159 L 894 159 L 894 133 L 868 133 L 868 159"/>
  <path class="p3" d="M 894 159 L 920 159 L 920 133 L 894 133 L 894 159"/>
  <line x1="920" y1="159" x2="920" y2="133"/>
  <path class="p3" d="M 815 133 L 841 133 L 841 106 L 815 106 L 815 133"/>
  <path class="p3" d="M 841 133 L 868 133 L 868 106 L 841 106 L 841 133"/>
  <path class="p3" d="M 815 106 L 841 106 L 841 80 L 815 80 L 815 106"/>
  <line x1="815" y1="80" x2="841" y2="80"/>
  <path class="p3" d="M 841 106 L 868 106 L 868 80 L 841 80 L 841 106"/>
  <line x1="841" y1="80" x2="868" y2="80"/>
  <path class="p3" d="M 868 133 L 894 133 L 894 106 L 868 106 L 868 133"/>
  <path class="p3" d="M 894 133 L 920 133 L 920 106 L 894 106 L 894 133"/>
  <line x1="920" y1="133" x2="920" y2="106"/>
  <path class="p3" d="M 868 106 L 894 106 L 894 80 L 868 80 L 868 106"/>
  <line x1="868" y1="80" x2="894" y2="80"/>
  <path class="p3" d="M 894 106 L 920 106 L 920 80 L 894 80 L 894 106"/>
  <line x1="920" y1="106" x2="920" y2="80"/>
  <line x1="894" y1="80" x2="920" y2="80"/>
  <path class="p3" d="M 710 448 L 736 448 L 736 421 L 710 421 L 710 448"/>
  <line x1="710" y1="448" x2="710" y2="421"/>
  <path class="p3" d="M 736 448 L 763 448 L 763 421 L 736 421 L 736 448"/>
  <path class="p3" d="M 710 421 L 736 421 L 736 395 L 710 395 L 710 421"/>
  <line x1="710" y1="421" x2="710" y2="395"/>
  <path class="p3" d="M 736 421 L 763 421 L 763 395 L 736 395 L 736 421"/>
  <path class="p3" d="M 763 448 L 789 448 L 789 421 L 763 421 L 763 448"/>
  <path class="p3" d="M 789 448 L 815 448 L 815 421 L 789 421 L 789 448"/>
  <path class="p3" d="M 763 421 L 789 421 L 789 395 L 763 395 L 763 421"/>
  <path class="p3" d="M 789 421 L 815 421 L 815 395 L 789 395 L 789 421"/>
  <path class="p3" d="M 553 290 L 579 290 L 579 264 L 553 264 L 553 290"/>
  <line x1="553" y1="290" x2="579" y2="290"/>
  <path class="p3" d="M 579 290 L 605 290 L 605 264 L 579 264 L 579 290"/>
  <line x1="579" y1="290" x2="605" y2="290"/>
  <path class="p3" d="M 553 264 L 579 264 L 579 238 L 553 238 L 553 264"/>
  <path class="p3" d="M 579 264 L 605 264 L 605 238 L 579 238 L 579 264"/>
  <path class="p3" d="M 553 238 L 579 238 L 579 211 L 553 211 L 553 238"/>
  <path class="p3" d="M 579 238 L 605 238 L 605 211 L 579 211 L 579 238"/>
  <path class="p3" d="M 553 211 L 579 211 L 579 185 L 553 185 L 553 211"/>
  <path class="p3" d="M 579 211 L 605 211 L 605 185 L 579 185 L 579 211"/>
  <path class="p4" d="M 710 316 L 723 316 L 723 303 L 710 303 L 710 316"/>
  <line x1="710" y1="316" x2="710" y2="303"/>
  <path class="p4" d="M 723 316 L 736 316 L 736 303 L 723 303 L 723 316"/>
  <path class="p4" d="M 710 303 L 723 303 L 723 290 L 710 290 L 710 303"/>
  <line x1="710" y1="303" x2="710" y2="290"/>
  <path class="p4" d="M 723 303 L 736 303 L 736 290 L 723 290 L 723 303"/>
  <path class="p4" d="M 789 343 L 802 343 L 802 329 L 789 329 L 789 343"/>
  <path class="p4" d="M 802 343 L 815 343 L 815 329 L 802 329 L 802 343"/>
  <path class="p4" d="M 789 329 L 802 329 L 802 316 L 789 316 L 789 329"/>
  <path class="p4" d="M 802 329 L 815 329 L 815 316 L 802 316 L 802 329"/>
  <path class="p4" d="M 684 290 L 697 290 L 697 277 L 684 277 L 684 290"/>
  <line x1="684" y1="290" x2="697" y2="290"/>
  <path class="p4" d="M 697 290 L 710 290 L 710 277 L 697 277 L 697 290"/>
  <line x1="697" y1="290" x2="710" y2="290"/>
  <path class="p4" d="M 684 277 L 697 277 L 697 264 L 684 264 L 684 277"/>
  <path class="p4" d="M 697 277 L 710 277 L 710 264 L 697 264 L 697 277"/>
  <path class="p4" d="M 658 211 L 671 211 L 671 198 L 658 198 L 658 211"/>
  <path class="p4" d="M 671 211 L 684 211 L 684 198 L 671 198 L 671 211"/>
  <path class="p4" d="M 658 198 L 671 198 L 671 185 L 658 185 L 658 198"/>
  <path class="p4" d="M 671 198 L 684 198 L 684 185 L 671 185 L 671 198"/>
  <path class="p4" d="M 710 290 L 723 290 L 723 277 L 710 277 L 710 290"/>
  <path class="p4" d="M 723 290 L 736 290 L 736 277 L 723 277 L 723 290"/>
  <path class="p4" d="M 710 277 L 723 277 L 723 264 L 710 264 L 710 277"/>
  <path class="p4" d="M 723 277 L 736 277 L 736 264 L 723 264 L 723 277"/>
  <path class="p4" d="M 789 290 L 802 290 L 802 277 L 789 277 L 789 290"/>
  <path class="p4" d="M 802 290 L 815 290 L 815 277 L 802 277 L 802 290"/>
  <path class="p4" d="M 789 277 L 802 277 L 802 264 L 789 264 L 789 277"/>
  <path class="p4" d="M 802 277 L 815 277 L 815 264 L 802 264 L 802 277"/>
  <path class="p4" d="M 710 211 L 723 211 L 723 198 L 710 198 L 710 211"/>
  <path class="p4" d="M 723 211 L 736 211 L 736 198 L 723 198 L 723 211"/>
  <path class="p4" d="M 710 198 L 723 198 L 723 185 L 710 185 L 710 198"/>
  <path class="p4" d="M 723 198 L 736 198 L 736 185 L 723 185 L 723 198"/>
  <path class="p4" d="M 789 211 L 802 211 L 802 198 L 789 198 L 789 211"/>
  <path class="p4" d="M 802 211 L 815 211 L 815 198 L 802 198 L 802 211"/>
  <path class="p4" d="M 789 198 L 802 198 L 802 185 L 789 185 L 789 198"/>
  <path class="p4" d="M 802 198 L 815 198 L 815 185 L 802 185 L 802 198"/>
  <path class="p4" d="M 815 238 L 828 238 L 828 224 L 815 224 L 815 238"/>
  <path class="p4" d="M 828 238 L 841 238 L 841 224 L 828 224 L 828 238"/>
  <path class="p4" d="M 815 224 L 828 224 L 828 211 L 815 211 L 815 224"/>
  <path class="p4" d="M 828 224 L 841 224 L 841 211 L 828 211 L 828 224"/>
  <path class="p4" d="M 815 211 L 828 211 L 828 198 L 815 198 L 815 211"/>
  <path class="p4" d="M 828 211 L 841 211 L 841 198 L 828 198 L 828 211"/>
  <path class="p4" d="M 815 198 L 828 198 L 828 185 L 815 185 L 815 198"/>
  <path class="p4" d="M 828 198 L 841 198 L 841 185 L 828 185 L 828 198"/>
  <path class="p4" d="M 841 211 L 854 211 L 854 198 L 841 198 L 841 211"/>
  <path class="p4" d="M 854 211 L 868 211 L 868 198 L 854 198 L 854 211"/>
  <path class="p4" d="M 841 198 L 854 198 L 854 185 L 841 185 L 841 198"/>
  <path class="p4" d="M 854 198 L 868 198 L 868 185 L 854 185 L 854 198"/>
  <path class="p4" d="M 763 185 L 776 185 L 776 172 L 763 172 L 763 185"/>
  <path class="p4" d="M 776 185 L 789 185 L 789 172 L 776 172 L 776 185"/>
  <path class="p4" d="M 763 172 L 776 172 L 776 159 L 763 159 L 763 172"/>
  <path class="p4" d="M 776 172 L 789 172 L 789 159 L 776 159 L 776 172"/>
  <path class="p4" d="M 789 185 L 802 185 L 802 172 L 789 172 L 789 185"/>
  <path class="p4" d="M 802 185 L 815 185 L 815 172 L 802 172 L 802 185"/>
  <path class="p4" d="M 789 172 L 802 172 L 802 159 L 789 159 L 789 172"/>
  <path class="p4" d="M 802 172 L 815 172 L 815 159 L 802 159 L 802 172"/>
  <path class="p4" d="M 789 159 L 802 159 L 802 146 L 789 146 L 789 159"/>
  <path class="p4" d="M 802 159 L 815 159 L 815 146 L 802 146 L 802 159"/>
  <path class="p4" d="M 789 146 L 802 146 L 802 133 L 789 133 L 789 146"/>
  <path class="p4" d="M 802 146 L 815 146 L 815 133 L 802 133 L 802 146"/>
  <path class="p4" d="M 815 185 L 828 185 L 828 172 L 815 172 L 815 185"/>
  <path class="p4" d="M 828 185 L 841 185 L 841 172 L 828 172 L 828 185"/>
  <path class="p4" d="M 815 172 L 828 172 L 828 159 L 815 159 L 815 172"/>
  <path class="p4" d="M 828 172 L 841 172 L 841 159 L 828 159 L 828 172"/>
  <path class="p4" d="M 841 185 L 854 185 L 854 172 L 841 172 L 841 185"/>
  <path class="p4" d="M 854 185 L 868 185 L 868 172 L 854 172 L 854 185"/>
  <path class="p4" d="M 841 172 L 854 172 L 854 159 L 841 159 L 841 172"/>
  <path class="p4" d="M 854 172 L 868 172 L 868 159 L 854 159 L 854 172"/>
  <path class="p4" d="M 815 159 L 828 159 L 828 146 L 815 146 L 815 159"/>
  <path class="p4" d="M 828 159 L 841 159 L 841 146 L 828 146 L 828 159"/>
  <path class="p4" d="M 815 146 L 828 146 L 828 133 L 815 133 L 815 146"/>
  <path class="p4" d="M 828 146 L 841 146 L 841 133 L 828 133 L 828 146"/>
  <path class="p4" d="M 841 159 L 854 159 L 854 146 L 841 146 L 841 159"/>
  <path class="p4" d="M 854 159 L 868 159 L 868 146 L 854 146 L 854 159"/>
  <path class="p4" d="M 841 146 L 854 146 L 854 133 L 841 133 L 841 146"/>
  <path class="p4" d="M 854 146 L 868 146 L 868 133 L 854 133 L 854 146"/>

</svg>