<svg width="1000" height="1000" xmlns="http://www.w3.org/2000/svg" version="1.1">


<!-- internal style sheet -->
<style type="text/css"><![CDATA[
 rect.background{fill:white}
 rect{fill:none; stroke:rgb(25,25,25); stroke-width:2}
 text{font-family:Helvetica; text-anchor:middle; fill:rgb(25,25,25)}
 line{stroke:rgb(25,25,25); stroke-width:4}
 path{fill:none; stroke:rgb(25,25,25); stroke-width:2}
 circle{fill:white; stroke:black; stroke-width:2}

 path.p0{fill:rgb(0,102,255); stroke:rgb(25,25,25); stroke-width:2}
 path.ps0{fill:rgb(0,77,191); stroke:rgb(20,20,20); stroke-width:2}
 rect.r0{fill:rgb(0,102,255); stroke:rgb(25,25,25); stroke-width:2}
 path.p1{fill:rgb(255,0,0); stroke:rgb(25,25,25); stroke-width:2}
 path.ps1{fill:rgb(191,0,0); stroke:rgb(20,20,20); stroke-width:2}
 rect.r1{fill:rgb(255,0,0); stroke:rgb(25,25,25); stroke-width:2}
]]></style>

 <rect class="background" width="1000" height="1000"/>
  <!-- cells -->
  <path class="p1" d="M 80 920 L 185 920 L 185 815 L 80 815 L 80 920"/>
  <line x1="80" y1="920" x2="80" y2="815"/>
  <line x1="80" y1="920" x2="185" y2="920"/>
  <path class="p1" d="M 185 920 L 290 920 L 290 815 L 185 815 L 185 920"/>
  <line x1="185" y1="920" x2="290" y2="920"/>
  <path class="p1" d="M 80 815 L 185 815 L 185 710 L 80 710 L 80 815"/>
  <line x1="80" y1="815" x2="80" y2="710"/>
  <path class="p1" d="M 185 815 L 290 815 L 290 710 L 185 710 L 185 815"/>
  <path class="p1" d="M 290 920 L 395 920 L 395 815 L 290 815 L 290 920"/>
  <line x1="290" y1="920" x2="395" y2="920"/>
  <path class="p1" d="M 395 920 L 500 920 L 500 815 L 395 815 L 395 920"/>
  <line x1="395" y1="920" x2="500" y2="920"/>
  <path class="p1" d="M 290 815 L 395 815 L 395 710 L 290 710 L 290 815"/>
  <line x1="290" y1="710" x2="395" y2="710"/>
  <path class="p1" d="M 395 815 L 500 815 L 500 710 L 395 710 L 395 815"/>
  <line x1="395" y1="710" x2="500" y2="710"/>
  <path class="p1" d="M 500 920 L 605 920 L 605 815 L 500 815 L 500 920"/>
  <line x1="500" y1="920" x2="605" y2="920"/>
  <path class="p1" d="M 605 920 L 710 920 L 710 815 L 605 815 L 605 920"/>
  <line x1="605" y1="920" x2="710" y2="920"/>
  <path class="p1" d="M 500 815 L 605 815 L 605 710 L 500 710 L 500 815"/>
  <line x1="500" y1="710" x2="605" y2="710"/>
  <path class="p1" d="M 605 815 L 710 815 L 710 710 L 605 710 L 605 815"/>
  <line x1="605" y1="710" x2="710" y2="710"/>
  <path class="p1" d="M 710 920 L 815 920 L 815 815 L 710 815 L 710 920"/>
  <line x1="710" y1="920" x2="815" y2="920"/>
  <path class="p1" d="M 815 920 L 920 920 L 920 815 L 815 815 L 815 920"/>
  <line x1="920" y1="920" x2="920" y2="815"/>
  <line x1="815" y1="920" x2="920" y2="920"/>
  <path class="p1" d="M 710 815 L 815 815 L 815 710 L 710 710 L 710 815"/>
  <path class="p1" d="M 815 815 L 920 815 L 920 710 L 815 710 L 815 815"/>
  <line x1="920" y1="815" x2="920" y2="710"/>
  <path class="p1" d="M 80 710 L 185 710 L 185 605 L 80 605 L 80 710"/>
  <line x1="80" y1="710" x2="80" y2="605"/>
  <path class="p1" d="M 185 710 L 290 710 L 290 605 L 185 605 L 185 710"/>
  <line x1="290" y1="710" x2="290" y2="605"/>
  <path class="p1" d="M 80 605 L 185 605 L 185 500 L 80 500 L 80 605"/>
  <line x1="80" y1="605" x2="80" y2="500"/>
  <path class="p1" d="M 185 605 L 290 605 L 290 500 L 185 500 L 185 605"/>
  <line x1="290" y1="605" x2="290" y2="500"/>
  <path class="p1" d="M 710 710 L 815 710 L 815 605 L 710 605 L 710 710"/>
  <line x1="710" y1="710" x2="710" y2="605"/>
  <path class="p1" d="M 815 710 L 920 710 L 920 605 L 815 605 L 815 710"/>
  <line x1="920" y1="710" x2="920" y2="605"/>
  <path class="p1" d="M 710 605 L 815 605 L 815 500 L 710 500 L 710 605"/>
  <line x1="710" y1="605" x2="710" y2="500"/>
  <path class="p1" d="M 815 605 L 920 605 L 920 500 L 815 500 L 815 605"/>
  <line x1="920" y1="605" x2="920" y2="500"/>
  <path class="p1" d="M 80 500 L 185 500 L 185 395 L 80 395 L 80 500"/>
  <line x1="80" y1="500" x2="80" y2="395"/>
  <path class="p1" d="M 185 500 L 290 500 L 290 395 L 185 395 L 185 500"/>
  <line x1="290" y1="500" x2="290" y2="395"/>
  <path class="p1" d="M 80 395 L 185 395 L 185 290 L 80 290 L 80 395"/>
  <line x1="80" y1="395" x2="80" y2="290"/>
  <path class="p1" d="M 185 395 L 290 395 L 290 290 L 185 290 L 185 395"/>
  <line x1="290" y1="395" x2="290" y2="290"/>
  <path class="p1" d="M 710 500 L 815 500 L 815 395 L 710 395 L 710 500"/>
  <line x1="710" y1="500" x2="710" y2="395"/>
  <path class="p1" d="M 815 500 L 920 500 L 920 395 L 815 395 L 815 500"/>
  <line x1="920" y1="500" x2="920" y2="395"/>
  <path class="p1" d="M 710 395 L 815 395 L 815 290 L 710 290 L 710 395"/>
  <line x1="710" y1="395" x2="710" y2="290"/>
  <path class="p1" d="M 815 395 L 920 395 L 920 290 L 815 290 L 815 395"/>
  <line x1="920" y1="395" x2="920" y2="290"/>
  <path class="p1" d="M 80 290 L 185 290 L 185 185 L 80 185 L 80 290"/>
  <line x1="80" y1="290" x2="80" y2="185"/>
  <path class="p1" d="M 185 290 L 290 290 L 290 185 L 185 185 L 185 290"/>
  <path class="p1" d="M 80 185 L 185 185 L 185 80 L 80 80 L 80 185"/>
  <line x1="80" y1="185" x2="80" y2="80"/>
  <line x1="80" y1="80" x2="185" y2="80"/>
  <path class="p1" d="M 185 185 L 290 185 L 290 80 L 185 80 L 185 185"/>
  <line x1="185" y1="80" x2="290" y2="80"/>
  <path class="p1" d="M 290 290 L 395 290 L 395 185 L 290 185 L 290 290"/>
  <line x1="290" y1="290" x2="395" y2="290"/>
  <path class="p1" d="M 395 290 L 500 290 L 500 185 L 395 185 L 395 290"/>
  <line x1="395" y1="290" x2="500" y2="290"/>
  <path class="p1" d="M 290 185 L 395 185 L 395 80 L 290 80 L 290 185"/>
  <line x1="290" y1="80" x2="395" y2="80"/>
  <path class="p1" d="M 395 185 L 500 185 L 500 80 L 395 80 L 395 185"/>
  <line x1="395" y1="80" x2="500" y2="80"/>
  <path class="p1" d="M 500 290 L 605 290 L 605 185 L 500 185 L 500 290"/>
  <line x1="500" y1="290" x2="605" y2="290"/>
  <path class="p1" d="M 605 290 L 710 290 L 710 185 L 605 185 L 605 290"/>
  <line x1="605" y1="290" x2="710" y2="290"/>
  <path class="p1" d="M 500 185 L 605 185 L 605 80 L 500 80 L 500 185"/>
  <line x1="500" y1="80" x2="605" y2="80"/>
  <path class="p1" d="M 605 185 L 710 185 L 710 80 L 605 80 L 605 185"/>
  <line x1="605" y1="80" x2="710" y2="80"/>
  <path class="p1" d="M 710 290 L 815 290 L 815 185 L 710 185 L 710 290"/>
  <path class="p1" d="M 815 290 L 920 290 L 920 185 L 815 185 L 815 290"/>
  <line x1="920" y1="290" x2="920" y2="185"/>
  <path class="p1" d="M 710 185 L 815 185 L 815 80 L 710 80 L 710 185"/>
  <line x1="710" y1="80" x2="815" y2="80"/>
  <path class="p1" d="M 815 185 L 920 185 L 920 80 L 815 80 L 815 185"/>
  <line x1="920" y1="185" x2="920" y2="80"/>
  <line x1="815" y1="80" x2="920" y2="80"/>

</svg>